<?xml version="1.0" standalone="no"?>
<!DOCTYPE svg PUBLIC "-//W3C//DTD SVG 1.1//EN" "http://www.w3.org/Graphics/SVG/1.1/DTD/svg11.dtd" >
<svg xmlns="http://www.w3.org/2000/svg">
<metadata>
This is a custom SVG webfont generated by Font Squirrel.
Copyright   : CopyrightC1996 Type Market Ltd Moscow 119136 Box 20 phone0952879693 Created by S Shanovich
</metadata>
<defs>
<font id="HeliosThinItalic" horiz-adv-x="1079" >
<font-face units-per-em="2048" ascent="1638" descent="-410" />
<missing-glyph horiz-adv-x="536" />
<glyph unicode=" "  horiz-adv-x="536" />
<glyph unicode="&#x09;" horiz-adv-x="536" />
<glyph unicode="&#xa0;" horiz-adv-x="536" />
<glyph unicode="!" horiz-adv-x="636" d="M129 0h70l39 182h-70zM217 371h49l246 1116h-76z" />
<glyph unicode="&#x22;" horiz-adv-x="534" d="M43 891h72l118 557h-71zM301 891h72l119 557h-72z" />
<glyph unicode="#" horiz-adv-x="1591" d="M98 512h344l-288 -510h94l291 510h278l-291 -510h99l288 510h363l37 74h-361l166 295h336l39 73h-328l287 514h-94l-291 -514h-276l290 514h-98l-291 -514h-379l-39 -73h377l-170 -295h-346zM582 586l166 295h274l-166 -295h-274z" />
<glyph unicode="$" d="M23 295q0 -143 82.5 -225t242.5 -99l-31 -143h62l31 143q432 31 510 396q4 23 7 43t3 41q0 240 -355 305l136 633h6q268 0 268 -230q0 -16 -1 -31.5t-3 -31.5h59l7.5 47t3.5 45q0 127 -83 194.5t-243 71.5l18 92h-61l-18 -92q-86 0 -160 -26.5t-132.5 -73.5t-98.5 -113.5 t-58 -148.5q-4 -25 -7 -47.5t-3 -45.5q0 -115 72.5 -186.5t224.5 -112.5l-140 -661q-272 35 -272 280q0 49 12 109h-65v-6q-14 -64 -14 -127zM276 1018q0 41 9 80q29 133 124 209.5t240 81.5l-131 -619q-123 35 -182.5 94.5t-59.5 153.5zM424 39l137 647q147 -31 220 -91 t73 -159q0 -39 -8 -74q-29 -137 -136.5 -222t-285.5 -101z" />
<glyph unicode="%" horiz-adv-x="1505" d="M141 -33h70l1151 1522h-72zM172 1106q0 -109 69.5 -179.5t184.5 -70.5q66 0 129 24.5t114.5 67.5t88.5 100.5t51 122.5q4 16 6 34t2 34q0 109 -69.5 179.5t-186.5 70.5q-66 0 -129 -24.5t-114.5 -67.5t-88 -101.5t-51.5 -124.5q-6 -34 -6 -65zM236 1116q0 25 6 53 q12 53 40.5 99.5t70.5 80t91.5 53t102.5 19.5q92 0 150.5 -57t58.5 -143q0 -25 -6 -52q-12 -53 -42 -99t-72 -80t-93 -53t-103 -19q-90 0 -147 56t-57 142zM688 217q0 -109 70.5 -179.5t185.5 -70.5q66 0 129.5 24.5t114.5 67.5t88 100.5t51 123.5q4 16 6 33.5t2 33.5 q0 109 -69.5 178.5t-186.5 69.5q-66 0 -129 -24.5t-115.5 -67.5t-89 -100.5t-51.5 -122.5q-6 -35 -6 -66zM752 229q0 25 6 54q12 53 40.5 99t70.5 80t92.5 53.5t103.5 19.5q92 0 148.5 -57.5t56.5 -143.5q0 -25 -6 -51q-12 -53 -42 -99.5t-71 -80t-91 -53t-102 -19.5 q-92 0 -149 56t-57 142z" />
<glyph unicode="&#x26;" horiz-adv-x="1259" d="M33 295q0 -152 98 -245t277 -93q123 0 249.5 61.5t249.5 178.5l119 -197h86l-154 258q131 166 187 412h-64q-45 -203 -157 -359l-312 529q328 135 377 366q8 33 8 70q0 98 -63.5 154.5t-169.5 56.5q-66 0 -125 -20.5t-105.5 -57.5t-79 -87t-44.5 -112q-6 -29 -7 -57 q0 -66 29 -135.5t82 -155.5q-406 -166 -471 -465q-6 -27 -8 -52t-2 -50zM104 313q0 23 3.5 43.5l7.5 42.5q29 139 137 244t293 164l329 -551q-104 -117 -226 -176.5t-247 -59.5q-66 0 -121 21.5t-94 60.5t-60.5 93.5t-21.5 117.5zM473 1161q0 29 6 60q8 43 34 80.5 t60.5 65.5t78.5 44t91 16q86 0 137.5 -46t51.5 -124q0 -25 -6 -51q-23 -104 -107 -181t-237 -136q-53 76 -81 141t-28 131z" />
<glyph unicode="'" horiz-adv-x="278" d="M45 891h70l118 557h-69z" />
<glyph unicode="(" horiz-adv-x="595" d="M170 197q0 -336 143 -654h70q-147 322 -147 650q0 86 10 172t28 176q55 264 179.5 493.5t322.5 446.5h-74q-199 -225 -320.5 -455.5t-176.5 -493.5q-18 -86 -26.5 -168.5t-8.5 -166.5z" />
<glyph unicode=")" horiz-adv-x="595" d="M-195 -457h70q426 481 533 989q39 180 38 353q0 309 -131 596h-73q70 -141 104.5 -287.5t34.5 -306.5q0 -84 -10.5 -169t-28.5 -177q-57 -266 -189.5 -511t-347.5 -487z" />
<glyph unicode="*" horiz-adv-x="1032" d="M221 1241l248 -72l-227 -225l45 -41l215 232l121 -232l59 41l-131 225l280 72l-12 72l-270 -94l63 268h-69l-47 -268l-236 94z" />
<glyph unicode="+" horiz-adv-x="1722" d="M250 586h575l-125 -586h62l125 586h573l13 61h-574l125 586h-61l-125 -586h-576z" />
<glyph unicode="," horiz-adv-x="536" d="M94 -217h72l231 395h-71z" />
<glyph unicode="-" horiz-adv-x="710" d="M74 506h549l12 57h-549z" />
<glyph unicode="." horiz-adv-x="536" d="M217 0h66l36 178h-65z" />
<glyph unicode="/" horiz-adv-x="602" d="M-209 -174h72l946 1700h-72z" />
<glyph unicode="0" d="M45 391q0 -215 86 -324.5t250 -109.5q127 0 244.5 81t209 223t145.5 334.5t54 418.5q0 215 -87 323.5t-251 108.5q-131 0 -248.5 -91t-206.5 -239.5t-142.5 -338t-53.5 -386.5zM115 397q0 174 46 349.5t125 316.5t182 230t218 89q279 0 279 -370q0 -205 -47.5 -385.5 t-126 -315.5t-182 -213t-214.5 -78q-137 0 -208.5 95.5t-71.5 281.5z" />
<glyph unicode="1" horiz-adv-x="1077" d="M287 1083h18q113 0 202 35t171 109l-262 -1227h67l299 1403h-67q-94 -254 -416 -260z" />
<glyph unicode="2" d="M-49 0h856l14 61h-788q0 16 2 30.5t6 29.5q14 72 55 130t109.5 113.5t164.5 109.5l218 120q100 55 185 107.5t146.5 116t96.5 143t35 188.5q0 135 -88.5 214t-243.5 79q-94 0 -178 -29t-150.5 -83t-114 -132t-67.5 -176l-4 -18h71l7 22q35 166 149.5 259t272.5 93 q127 0 198.5 -64.5t71.5 -178.5q0 -98 -43 -183.5t-121 -150.5q-70 -59 -170 -109.5t-221 -118.5q-131 -72 -219 -136t-133 -118q-35 -39 -54.5 -77.5t-31 -77.5t-18.5 -80t-13 -84z" />
<glyph unicode="3" d="M20 285q0 -154 90.5 -238t258.5 -84q102 0 193 31t164 88t123 136t71 175q10 51 10 88q0 102 -56.5 171t-162.5 93q119 35 202.5 127.5t110.5 219.5q8 39 8 82q0 123 -84 196.5t-235 73.5q-201 0 -333 -108.5t-173 -307.5l-2 -6h63l2 10q35 166 144.5 257t269.5 91 q135 0 206 -56t71 -161q0 -39 -9 -73q-31 -150 -148.5 -236t-303.5 -86q-10 0 -22.5 1t-26.5 1l-13 -59h43q375 0 375 -242q0 -35 -10 -86q-16 -78 -59.5 -143.5t-104.5 -111.5t-138 -71.5t-163 -25.5q-139 0 -214 68.5t-75 201.5q0 29 4 58.5t10 62.5l3 6h-70l-4 -10 q-8 -35 -11.5 -68.5t-3.5 -64.5z" />
<glyph unicode="4" d="M29 373h659l-80 -373h66l80 373h159l15 63h-160l205 967h-60l-870 -963zM113 436l772 852l-180 -852h-592z" />
<glyph unicode="5" d="M29 291q0 -160 89 -246t253 -86q102 0 193 33t164 93t123 146t73 193q6 31 10 60.5t4 58.5q0 156 -95 247t-257 91q-96 0 -178 -23.5t-156 -77.5l209 563h602l12 62h-655l-273 -733h56q74 72 163 110.5t193 38.5q143 0 226 -75.5t83 -210.5q0 -47 -12 -103 q-20 -94 -63 -170t-104.5 -129t-139.5 -81.5t-168 -28.5q-139 0 -213 70.5t-74 207.5q0 16 1 30.5t3 30.5h-65q-2 -18 -3 -36.5t-1 -34.5z" />
<glyph unicode="6" d="M55 362q0 -403 353 -403q88 0 172 33t152.5 95.5t119.5 151.5t76 199q14 70 14 135q0 160 -88 250t-246 90q-147 0 -269 -86t-194 -245q4 29 9.5 54.5t11.5 49.5q145 692 555 692q281 0 262 -282h66q2 16 3 30.5t1 28.5q0 139 -79 214t-226 75q-494 0 -656 -774 q-37 -177 -37 -308zM137 315q0 61 15 125q20 94 62 170t100.5 130.5t130 83t149.5 28.5q129 0 202.5 -75t73.5 -214q0 -61 -14 -125q-20 -98 -63 -175t-101.5 -129t-131.5 -79.5t-152 -27.5q-127 0 -199 76.5t-72 211.5z" />
<glyph unicode="7" d="M170 2h68q309 813 856 1335l14 68h-838l-14 -66h754q-574 -589 -840 -1337z" />
<glyph unicode="8" d="M16 291q0 -150 95.5 -240t263.5 -90q104 0 194 31t162 88t121 139t72 182q6 27 8 51.5t2 47.5q0 199 -205 272q123 51 189.5 127t91.5 186q10 51 10 86q0 127 -84 201t-240 74q-88 0 -164.5 -25.5t-138 -74t-103.5 -115t-59 -146.5q-10 -47 -10 -81q0 -158 158 -232 q-293 -96 -352 -379q-6 -27 -8.5 -52t-2.5 -50zM90 313q0 23 3 44.5t7 45.5q33 156 152 245t295 89q152 0 232.5 -67.5t80.5 -188.5q0 -43 -8 -82q-18 -82 -60 -149.5t-103.5 -115.5t-136.5 -74.5t-157 -26.5q-141 0 -223 75.5t-82 204.5zM297 1024q0 16 2 32.5t6 35.5 q29 129 131.5 210.5t247.5 81.5q125 0 193.5 -60t68.5 -163q0 -37 -8 -69q-29 -133 -133.5 -213t-245.5 -80q-123 0 -192.5 60.5t-69.5 164.5z" />
<glyph unicode="9" d="M27 246q0 -139 78.5 -214t226.5 -75q494 0 657 774q37 174 37 305q0 406 -354 406q-88 0 -171 -33t-152.5 -95.5t-120 -151.5t-74.5 -199q-14 -70 -15 -138q0 -160 87 -249t245 -89q147 0 270 86t195 246q-4 -29 -10 -54.5t-11 -49.5q-147 -692 -557 -692 q-281 0 -262 282h-65q-2 -16 -3 -30.5t-1 -28.5zM209 838q0 61 14 125q20 98 63.5 174.5t103 129t131 80t151.5 27.5q127 0 199.5 -75.5t72.5 -213.5q0 -61 -14 -124q-20 -94 -63.5 -170t-101.5 -130.5t-130 -83t-150 -28.5q-129 0 -202.5 75t-73.5 214z" />
<glyph unicode=":" horiz-adv-x="585" d="M152 0h67l37 178h-68zM328 827h67l37 179h-67z" />
<glyph unicode=";" horiz-adv-x="587" d="M0 -217h70l233 395h-74zM373 827h67l39 181h-67z" />
<glyph unicode="&#x3c;" horiz-adv-x="1722" d="M262 596l1086 -485l16 69l-987 436l1171 437l17 69l-1295 -485z" />
<glyph unicode="=" horiz-adv-x="1722" d="M211 408h1210l15 61h-1211zM289 766h1210l12 61h-1210z" />
<glyph unicode="&#x3e;" horiz-adv-x="1722" d="M158 111l1294 485l8 41l-1085 485l-17 -69l985 -437l-1169 -436z" />
<glyph unicode="?" horiz-adv-x="956" d="M129 1065h68l2 8q39 184 150.5 281.5t277.5 97.5q141 0 216 -56.5t75 -164.5q0 -39 -9 -78q-20 -94 -86 -166t-131 -120t-112 -89q-57 -47 -101.5 -92t-72.5 -111q-18 -43 -35 -94t-33 -114h65q16 59 32 107t32 85q23 53 60.5 90t88.5 78q45 37 112 86t138 127 q45 49 73 105.5t42 115.5q8 39 8 82q0 129 -88 203t-248 74q-201 0 -339 -119t-185 -336zM254 0h80l39 178h-80z" />
<glyph unicode="@" horiz-adv-x="2068" d="M94 340q0 -260 191 -432q100 -92 245.5 -137t337.5 -45q178 0 352.5 53t344.5 164l-17 34q-160 -94 -336 -144t-342 -50q-162 0 -289.5 40t-216 112.5t-134.5 176t-46 232.5q0 80 19 170q45 213 164.5 389t308.5 305q135 94 288.5 142.5t323.5 48.5q147 0 263 -35 t197 -99.5t123 -153.5t42 -198q0 -63 -15 -127q-29 -137 -101.5 -258.5t-170.5 -205.5q-72 -61 -149.5 -94t-147.5 -33q-61 0 -89 24.5t-17 71.5q4 16 16 47t33 74l258 553h-66l-94 -138q-23 178 -221 179q-94 0 -187.5 -42t-173 -116t-138 -174.5t-83.5 -216.5 q-12 -55 -12 -103q0 -223 260 -223q88 0 177 49t157 142q-4 -12 -7 -24.5t-7 -23.5q-31 -141 159 -141q78 0 163 28.5t167 82.5q135 92 227.5 230t128.5 310q14 63 15 134q0 223 -168 372q-84 78 -217 123t-301 45q-250 0 -471.5 -91t-401.5 -267q-125 -119 -204.5 -262.5 t-114.5 -307.5q-23 -106 -23 -190zM649 375q0 16 2 35.5t6 40.5q23 104 70 194t110.5 155.5t139.5 103.5t156 38q98 0 148 -54t52 -157l-121 -262q-59 -125 -162.5 -199.5t-220.5 -74.5q-86 0 -133 47t-47 133z" />
<glyph unicode="A" horiz-adv-x="1187" d="M-170 0h70l303 508h694l84 -508h68l-250 1489h-78zM240 569l503 838l142 -838h-645z" />
<glyph unicode="B" horiz-adv-x="1277" d="M12 0h453q131 0 232.5 13.5t187.5 60.5q90 47 152.5 133t84.5 190q12 57 13 107q0 225 -261 276q135 45 218.5 132t107.5 208q4 23 7 44.5t3 43.5q0 145 -104 215q-61 41 -153.5 53.5t-219.5 12.5h-405zM94 63l146 685h370q227 0 340 -56.5t113 -191.5q0 -20 -3 -43 t-7 -47q-23 -113 -88.5 -194t-159.5 -116q-70 -27 -154 -32t-188 -5h-369zM252 801l133 624h342q205 0 310.5 -45t105.5 -172q0 -33 -10 -84q-37 -170 -168 -246.5t-367 -76.5h-346z" />
<glyph unicode="C" horiz-adv-x="1406" d="M74 481q0 -248 124 -380t359 -132q125 0 235.5 37t200.5 104.5t154.5 165t97.5 218.5h-67q-29 -109 -86.5 -194t-137.5 -145.5t-180 -92t-213 -31.5q-199 0 -306.5 120.5t-107.5 346.5q0 106 29 243q37 170 104.5 303.5t159.5 225.5t203 140t231 48q209 0 318 -104 q99 -95 99 -265q0 -16 -1 -32h70q2 16 3 29.5t1 27.5q0 92 -33 167t-93 128t-146 83t-191 30q-145 0 -273 -52.5t-231.5 -151.5t-178.5 -244.5t-114 -332.5q-30 -141 -30 -260z" />
<glyph unicode="D" horiz-adv-x="1425" d="M12 0h342q150 0 270.5 14.5t221.5 59.5q176 74 298 243.5t175 425.5q14 66 21.5 126.5t7.5 115.5q0 311 -215 430q-84 47 -199 60.5t-264 13.5h-342zM96 63l291 1360h287q172 0 294 -22.5t197 -104.5q106 -115 107 -323q0 -109 -27 -230q-47 -229 -151.5 -381.5 t-251.5 -224.5q-98 -47 -210 -60.5t-249 -13.5h-287z" />
<glyph unicode="E" horiz-adv-x="1173" d="M12 0h928l14 68h-858l144 675h766l14 64h-766l129 614h838l14 68h-907z" />
<glyph unicode="F" horiz-adv-x="1081" d="M12 0h70l158 743h706l15 64h-707l129 614h799l14 68h-868z" />
<glyph unicode="G" horiz-adv-x="1468" d="M82 502q0 -254 132 -394.5t374 -140.5q379 0 610 326l-61 -293h59l152 713h-557l-15 -62h492l-13 -65q-29 -129 -88 -231.5t-143 -175.5t-191.5 -110.5t-230.5 -37.5q-215 0 -331.5 127t-116.5 358q0 109 26 227q35 166 103.5 299.5t164 225.5t211 141t246.5 49 q211 0 322 -101q107 -98 106 -277v-13h70q1 22 1 44q0 186 -112 292q-125 119 -372 119q-150 0 -281 -54.5t-235.5 -155t-180.5 -244.5t-114 -325q-27 -126 -27 -241z" />
<glyph unicode="H" horiz-adv-x="1417" d="M10 0h72l162 764h940l-162 -764h70l315 1489h-70l-139 -664h-940l139 664h-71z" />
<glyph unicode="I" horiz-adv-x="428" d="M23 0h67l316 1489h-68z" />
<glyph unicode="J" horiz-adv-x="978" d="M-12 242q0 -137 75.5 -207t217.5 -70q205 0 317.5 117t163.5 352l223 1055h-70l-219 -1034q-23 -104 -52.5 -184.5t-75.5 -133.5t-110.5 -80.5t-156.5 -27.5q-244 0 -244 233q0 31 4.5 65.5t12.5 75.5q4 12 8 27.5t8 34.5h-65q-8 -25 -12.5 -47.5t-8.5 -40.5 q-16 -78 -16 -135z" />
<glyph unicode="K" horiz-adv-x="1202" d="M10 0h72l119 559l340 285l460 -844h84l-487 893l713 596h-88l-1004 -838l178 838h-71z" />
<glyph unicode="L" horiz-adv-x="1052" d="M14 0h858l15 68h-789l301 1421h-69z" />
<glyph unicode="M" horiz-adv-x="1599" d="M12 0h62l297 1401l237 -1401h66l833 1401l-297 -1401h62l315 1489h-96l-829 -1401l-236 1401h-98z" />
<glyph unicode="N" horiz-adv-x="1409" d="M10 0h70l291 1368l643 -1368h69l316 1489h-70l-291 -1370l-641 1370h-71z" />
<glyph unicode="O" horiz-adv-x="1533" d="M82 500q0 -256 133 -394.5t385 -138.5q154 0 287 53.5t240.5 152.5t183 243.5t114.5 326.5q14 66 20.5 127.5t6.5 116.5q0 256 -134 395.5t-386 139.5q-154 0 -287 -53.5t-239.5 -154t-182.5 -244.5t-114 -327q-14 -66 -20.5 -127t-6.5 -116zM154 514q0 109 26 229 q35 168 103.5 300.5t164 224.5t214 141t256.5 49q223 0 342.5 -127t119.5 -358q0 -53 -6 -110.5t-20 -119.5q-35 -168 -103.5 -300t-165 -224t-215 -140t-256.5 -48q-223 0 -341.5 127t-118.5 356z" />
<glyph unicode="P" horiz-adv-x="1189" d="M12 0h70l145 688h330q74 0 137.5 4t118.5 15.5t104.5 34t94.5 59.5q133 113 174 295q12 55 12 104q0 150 -115.5 219.5t-349.5 69.5h-405zM242 750l143 675h285q121 0 207 -8t145 -45q102 -61 102 -190q0 -33 -10 -80q-23 -113 -86 -196t-149 -118q-72 -29 -158 -33.5 t-197 -4.5h-282z" />
<glyph unicode="Q" horiz-adv-x="1533" d="M86 500q0 -254 132 -393.5t376 -139.5t414 107l172 -172l53 49l-166 164q281 225 369 645q27 119 26 231q0 252 -136 391.5t-388 139.5q-154 0 -287 -53.5t-238.5 -154t-182 -244.5t-115.5 -327q-29 -137 -29 -243zM160 512q0 53 6 110.5t20 120.5q37 168 105.5 301.5 t164 225.5t214 141t256.5 49q223 0 341.5 -128t118.5 -357q0 -111 -26 -232q-41 -197 -127 -345t-205 -240l-158 149l-51 -47l144 -143q-139 -84 -340 -84q-225 0 -344 124t-119 355z" />
<glyph unicode="R" horiz-adv-x="1286" d="M12 0h70l149 705h459q106 0 172 -17.5t99 -69.5q16 -25 21 -52t5 -60q0 -41 -6 -91t-16 -110q-14 -78 -23.5 -136t-9.5 -99q0 -43 14 -70h76q-18 37 -18 92q0 70 18 166t33 219q2 14 2 27v24q0 172 -156 205q147 41 231.5 132t114.5 235q8 33 11.5 62.5t3.5 56.5 q0 147 -110 208.5t-331 61.5h-493zM244 766l141 657h424q121 0 201 -13t133 -81q43 -59 43 -145q0 -39 -10 -90q-35 -160 -154 -244t-320 -84h-458z" />
<glyph unicode="S" horiz-adv-x="1185" d="M27 358q0 -186 107.5 -288.5t299.5 -102.5q115 0 213 31t175 88t127 135t71 174q6 25 8 47.5t2 42.5q0 66 -26.5 114t-79 84t-128 63.5t-173.5 56.5q-104 29 -179 55.5t-114 73.5q-57 59 -58 147q0 25 7 54q33 150 151.5 239.5t296.5 89.5q160 0 251 -76.5t91 -211.5 q0 -37 -10 -89h65q4 25 6.5 48.5t2.5 46.5q0 160 -102.5 251t-287.5 91q-104 0 -193 -29t-157.5 -81t-115 -122.5t-64.5 -156.5q-4 -20 -6 -40t-2 -38q0 -98 61 -168q47 -53 129 -82t193 -62q88 -27 157.5 -52t115.5 -56t70.5 -73t24.5 -101q0 -33 -10 -84 q-16 -74 -59 -137.5t-108.5 -109.5t-148.5 -72.5t-179 -26.5q-168 0 -262.5 89t-94.5 249q0 39 6 86h-67q-6 -54 -6 -97z" />
<glyph unicode="T" horiz-adv-x="1054" d="M172 1423h471l-303 -1423h70l303 1423h463l12 66h-1004z" />
<glyph unicode="U" horiz-adv-x="1386" d="M96 358q0 -190 113 -290.5t323 -100.5q125 0 232.5 38t191.5 108.5t143.5 173t88.5 233.5l205 969h-70l-199 -936q-53 -256 -201.5 -389t-375.5 -133q-377 0 -377 348q0 84 20 174l199 936h-70l-204 -969q-19 -86 -19 -162z" />
<glyph unicode="V" horiz-adv-x="1087" d="M152 1489l200 -1489h66l833 1489h-73l-770 -1387l-183 1387h-73z" />
<glyph unicode="W" horiz-adv-x="1703" d="M174 1489l82 -1489h70l663 1391l74 -1391h70l712 1489h-69l-652 -1364l-71 1364h-84l-650 -1364l-75 1364h-70z" />
<glyph unicode="X" horiz-adv-x="1097" d="M-156 0h78l615 702l321 -702h80l-344 764l631 725h-78l-582 -670l-301 670h-82l330 -727z" />
<glyph unicode="Y" horiz-adv-x="1097" d="M160 1489l336 -830l-140 -659h68l139 655l688 834h-80l-622 -760l-309 760h-80z" />
<glyph unicode="Z" horiz-adv-x="1095" d="M-139 0h1057l12 63h-981l1243 1354l14 72h-948l-12 -66h874l-1245 -1353z" />
<glyph unicode="[" horiz-adv-x="624" d="M35 -424h350l12 64h-276l381 1785h276l13 64h-351z" />
<glyph unicode="\" horiz-adv-x="602" d="M152 1528l225 -1700h72l-226 1700h-71z" />
<glyph unicode="]" horiz-adv-x="624" d="M-158 -424h351l405 1913h-350l-12 -64h276l-381 -1785h-276z" />
<glyph unicode="^" horiz-adv-x="2068" d="M371 909h110l598 488l387 -488h111l-436 557h-99z" />
<glyph unicode="_" horiz-adv-x="1032" d="M-6 -475h1032l12 61h-1032z" />
<glyph unicode="`" horiz-adv-x="1034" d="M346 1534l186 -332h66l-141 332h-111z" />
<glyph unicode="a" horiz-adv-x="1048" d="M8 205q0 -104 69.5 -167t194.5 -63q147 0 269.5 55.5t206.5 153.5l-7.5 -45t-3.5 -39q0 -111 111 -110q10 0 24.5 2t34.5 4l11 55q-10 -2 -19.5 -3t-19.5 -1q-72 0 -72 72q0 23 4 50.5t12 63.5l113 523q8 37 13 69.5t5 61.5q0 49 -20 90q-55 125 -287 125 q-186 0 -313 -88t-164 -238h61q35 127 140.5 196.5t269.5 69.5q248 0 248 -170q0 -25 -6 -55l-19 -90q-8 -41 -32.5 -60.5t-66.5 -30.5t-104.5 -16.5t-146.5 -17.5q-225 -31 -345 -101.5t-153 -221.5q-4 -18 -6 -38t-2 -36zM78 221q0 16 2 32.5t6 35.5q14 63 49 107t91.5 75 t137 50.5t185.5 31.5q121 14 191.5 24.5t99.5 38.5l-33 -157q-12 -55 -25.5 -99.5t-33 -82t-47 -69.5t-68.5 -63q-66 -47 -152 -75.5t-178 -28.5q-225 0 -225 180z" />
<glyph unicode="b" horiz-adv-x="1183" d="M-12 0h65l49 229q68 -258 351 -258q109 0 204 38t172.5 111t133 177t84.5 238q10 47 15 90t5 84q0 186 -97.5 288.5t-277.5 102.5q-145 0 -261 -68.5t-202 -202.5l142 658h-66zM150 373q0 72 18 162q51 242 188.5 373.5t323.5 131.5q152 0 235.5 -89t83.5 -255 q0 -74 -18 -161q-25 -119 -74 -213.5t-116.5 -159t-149.5 -98t-174 -33.5q-152 0 -234.5 89t-82.5 253z" />
<glyph unicode="c" horiz-adv-x="1075" d="M72 360q0 -186 96 -286.5t270 -100.5q88 0 167 26t144.5 75t113.5 118.5t77 155.5h-61q-25 -72 -68 -130t-98.5 -99t-121 -63.5t-134.5 -22.5q-152 0 -235 87t-83 253q0 74 19 164q51 242 188 372.5t324 130.5q135 0 212 -74q71 -69 71 -185q0 -9 -1 -19h66q2 20 1 38 q0 133 -77 211q-88 89 -260 89q-109 0 -204 -39t-171 -110.5t-131 -177t-84 -236.5q-10 -47 -15 -91.5t-5 -85.5z" />
<glyph unicode="d" horiz-adv-x="1183" d="M35 356q0 -186 97 -285.5t276 -99.5q147 0 266 69t196 200l-51 -240h64l317 1487h-63l-140 -647q-20 121 -111 189.5t-239 68.5q-109 0 -204 -39t-171.5 -110.5t-133 -177t-83.5 -236.5q-20 -91 -20 -179zM102 373q0 76 19 162q51 242 189.5 373.5t324.5 131.5 q152 0 234.5 -88t82.5 -254q0 -76 -18 -163q-51 -240 -188.5 -372t-323.5 -132q-152 0 -236 88t-84 254z" />
<glyph unicode="e" horiz-adv-x="1083" d="M70 356q0 -184 94 -283.5t262 -99.5q80 0 155.5 25t141 70t118 108.5t87.5 140.5h-64q-66 -135 -179.5 -209.5t-246.5 -74.5q-139 0 -220 88t-81 248q0 35 4 70.5t13 76.5l4 16h837l9 39q18 88 18 164q0 176 -93 270.5t-265 94.5q-102 0 -194.5 -39t-167.5 -110.5 t-129 -177t-83 -236.5q-20 -95 -20 -181zM172 592q57 213 189.5 330.5t302.5 117.5q133 0 210.5 -81.5t77.5 -231.5q0 -66 -14 -135h-766z" />
<glyph unicode="f" horiz-adv-x="501" d="M51 0h64l217 1014h180l12 61h-180l33 152q12 59 25.5 100t35 66.5t52 37t79.5 11.5q10 0 18.5 -1t18.5 -1l12 55q-14 2 -26 2h-23q-61 0 -102 -14.5t-70.5 -47t-49 -85t-34.5 -125.5l-32 -150h-150l-12 -61h149z" />
<glyph unicode="g" horiz-adv-x="1183" d="M39 -176q0 -117 88 -184.5t252 -67.5q152 0 270.5 47t198.5 139q63 72 89 145.5t44 159.5l215 1016h-63l-52 -241q-16 123 -108 193.5t-242 70.5q-109 0 -204 -38t-171.5 -110.5t-132 -177t-84.5 -237.5q-20 -90 -20 -179q0 -186 96 -286.5t272 -100.5q145 0 266 69 t201 194l-24 -111q-20 -96 -42 -172t-71 -141q-143 -180 -409 -181q-147 0 -226.5 56.5t-79.5 156.5q0 10 1 21.5t3 23.5h-61q-6 -34 -6 -65zM186 377q0 72 19 162q51 242 189 372.5t325 130.5q152 0 234.5 -87t82.5 -253q0 -76 -18 -163q-51 -242 -188.5 -373t-323.5 -131 q-152 0 -236 88t-84 254z" />
<glyph unicode="h" d="M-14 0h65l123 575q12 55 24.5 104.5t30 93.5t43 83t64.5 74q119 106 299 106q129 0 187.5 -50t58.5 -159q0 -53 -17 -135l-147 -692h65l152 713q14 66 14 129q0 256 -301 256q-129 0 -231.5 -51.5t-173.5 -147.5l125 588h-66z" />
<glyph unicode="i" horiz-adv-x="362" d="M-8 0h63l228 1075h-64zM270 1313h64l37 174h-64z" />
<glyph unicode="j" horiz-adv-x="360" d="M-219 -426h39q63 0 104 14.5t67.5 45t43 80.5t33.5 122l264 1241h-66l-260 -1218q-12 -61 -24.5 -103.5t-31 -69t-50 -37.5t-82.5 -11h-25zM315 1315h66l37 174h-66z" />
<glyph unicode="k" horiz-adv-x="948" d="M-14 0h65l82 383l318 254l288 -637h74l-307 684l473 391h-82l-747 -612l217 1024h-66z" />
<glyph unicode="l" horiz-adv-x="362" d="M-8 0h63l316 1487h-64z" />
<glyph unicode="m" horiz-adv-x="1689" d="M27 0h65l123 580q23 111 53.5 194.5t102.5 155.5q55 53 125.5 81.5t148.5 28.5q88 0 143.5 -37.5t69.5 -103.5q6 -29 6 -61q0 -41 -8 -89.5t-20 -103.5l-138 -645h64l123 580q23 111 53.5 194.5t103.5 155.5q53 53 124 81.5t149 28.5q88 0 143 -37.5t70 -103.5 q6 -29 6 -61q0 -41 -8 -89.5t-21 -103.5l-137 -645h66l151 713q16 78 17 135q0 252 -273 252q-119 0 -219 -56.5t-178 -164.5q-6 104 -76 162.5t-194 58.5q-115 0 -211.5 -52.5t-167.5 -148.5l39 176h-66z" />
<glyph unicode="n" d="M27 0h65l123 575q23 113 54.5 198t109.5 157q121 111 299 110q129 0 186.5 -51t57.5 -160q0 -55 -17 -137l-147 -692h65l152 713q14 66 14 129q0 258 -301 258q-129 0 -231.5 -52.5t-173.5 -148.5l39 176h-66z" />
<glyph unicode="o" horiz-adv-x="1128" d="M72 358q0 -184 97 -285.5t275 -101.5q109 0 204 39t172 111t132.5 176t83.5 238q10 47 15.5 91t5.5 85q0 186 -97.5 286.5t-277.5 100.5q-109 0 -204 -39t-171 -110.5t-131 -177t-84 -236.5q-10 -47 -15 -91.5t-5 -85.5zM139 371q0 74 19 164q51 242 188 372.5t324 130.5 q152 0 235.5 -88t83.5 -254q0 -74 -18 -161q-51 -242 -189.5 -373t-324.5 -131q-152 0 -235 87t-83 253z" />
<glyph unicode="p" horiz-adv-x="1183" d="M-18 -426h65l141 664q23 -127 112 -197t237 -70q109 0 204 39t172.5 113t133 178.5t83.5 237.5q10 47 15.5 91t5.5 85q0 186 -97.5 285.5t-277.5 99.5q-301 0 -463 -269l54 244h-66zM233 373q0 76 19 166q51 240 188.5 370.5t323.5 130.5q152 0 235.5 -88t83.5 -252 q0 -76 -18 -161q-25 -121 -74 -215.5t-116.5 -159t-150.5 -99t-175 -34.5q-152 0 -234 88t-82 254z" />
<glyph unicode="q" horiz-adv-x="1183" d="M119 358q0 -184 97 -285.5t276 -101.5q147 0 266 67.5t194 194.5l-139 -659h64l319 1501h-63l-54 -248q-23 133 -110.5 203t-237.5 70q-109 0 -204 -39t-171.5 -111.5t-133 -177t-83.5 -237.5q-10 -47 -15 -91.5t-5 -85.5zM186 369q0 76 19 166q25 119 74 213 t116.5 158.5t149.5 99t174 34.5q152 0 234.5 -90t82.5 -254q0 -74 -18 -161q-53 -242 -190.5 -373t-323.5 -131q-152 0 -235 87t-83 251z" />
<glyph unicode="r" horiz-adv-x="544" d="M27 0h65l111 522q27 127 62.5 221.5t85.5 158t119 95t163 35.5l14 66q-240 0 -366 -215l41 192h-66z" />
<glyph unicode="s" horiz-adv-x="993" d="M53 266q0 -141 88 -218t252 -77q84 0 160 23.5t134 64.5t98 96.5t55 120.5q4 18 6 34t2 32q0 94 -75 142t-216 87q-70 18 -125 36t-94 39.5t-60.5 50t-21.5 73.5q0 23 6 51q20 94 111.5 155.5t224.5 61.5t198 -63q56 -55 55 -154q0 -16 -1 -33h65q2 12 3 23v23 q0 123 -79 193.5t-221 70.5q-84 0 -156.5 -21.5t-129 -60.5t-93 -90.5t-49.5 -112.5q-6 -29 -6 -55q0 -82 56 -131q53 -51 147 -79l217 -63q172 -49 172 -163v-21q0 -10 -4 -22q-12 -55 -44 -100.5t-80 -77t-110.5 -49t-134.5 -17.5q-283 0 -282 273v11h-66q-2 -14 -2 -28 v-25z" />
<glyph unicode="t" horiz-adv-x="501" d="M80 80q0 -57 27.5 -83t91.5 -26q45 0 114 17l13 59q-29 -8 -54.5 -12t-50.5 -4q-39 0 -54 18.5t-15 56.5q0 25 5 56t13 71l166 779h194l13 57h-195l62 293h-66l-61 -293h-136l-12 -57h135l-180 -846q-4 -25 -7 -46.5t-3 -39.5z" />
<glyph unicode="u" d="M90 227q0 -256 301 -256q129 0 230.5 50.5t173.5 146.5l-35 -168h63l228 1075h-64l-123 -581q-23 -113 -54.5 -198t-109.5 -157q-59 -53 -133.5 -79.5t-165.5 -26.5q-129 0 -187 50t-58 159q0 53 16 135l147 698h-63l-152 -719q-14 -66 -14 -129z" />
<glyph unicode="v" horiz-adv-x="917" d="M131 1075l170 -1075h74l643 1075h-68l-596 -997l-155 997h-68z" />
<glyph unicode="w" horiz-adv-x="1382" d="M141 1075l111 -1075h67l457 958l55 -958h68l571 1075h-65l-518 -973l-56 973h-59l-463 -973l-100 973h-68z" />
<glyph unicode="x" horiz-adv-x="847" d="M-125 0h76l465 504l252 -504h75l-278 555l481 520h-76l-432 -467l-239 467h-78l266 -520z" />
<glyph unicode="y" horiz-adv-x="903" d="M-55 -414q16 -8 34.5 -10t38.5 -2q88 0 154 66.5t145 201.5l730 1237h-70l-582 -997l-159 997h-64l170 -1083l-143 -236q-37 -63 -75 -92.5t-89 -29.5q-37 0 -76 12z" />
<glyph unicode="z" horiz-adv-x="903" d="M-80 0h834l14 66h-764l940 931l17 78h-771l-14 -65h701l-940 -932z" />
<glyph unicode="{" horiz-adv-x="1032" d="M172 502q12 0 24.5 1t22.5 1q150 0 194 -67.5t9 -227.5l-51 -240q-23 -106 -26 -179t22.5 -119t85 -66.5t161.5 -20.5h35l15 70h-39q-76 0 -120 14.5t-63.5 46t-16.5 85t19 130.5l52 244q16 78 22 137.5t-5 103.5t-44 74.5t-90 49.5q66 18 111 48.5t74.5 75t50 103.5 t36.5 137l51 244q16 78 37 131t53.5 85t83 46t125.5 14h39l15 72h-35q-102 0 -170 -20.5t-113 -66.5t-73.5 -120t-51.5 -180l-51 -240q-16 -80 -41.5 -135t-62.5 -91t-90.5 -52.5t-124.5 -16.5h-27q-12 0 -27 2z" />
<glyph unicode="|" horiz-adv-x="1032" d="M260 -485h74l438 2068h-74z" />
<glyph unicode="}" horiz-adv-x="1034" d="M-18 -418h34q100 0 169 20.5t114 66.5t72.5 119t50.5 179l51 240q16 80 42 136t64.5 91t93 51.5t128.5 16.5q10 0 22.5 -1t24.5 -1l16 73q-14 -2 -28 -2h-25q-145 0 -189 69t-10 226l52 240q23 106 25.5 180t-23 120t-85 66.5t-159.5 20.5h-35l-14 -72h39q76 0 119.5 -14 t62 -46t15.5 -85t-19 -131l-51 -244q-16 -78 -22.5 -137t6 -103.5t44 -75t90.5 -48.5q-66 -18 -110.5 -49t-75.5 -75t-51.5 -103.5t-36.5 -137.5l-51 -244q-16 -78 -37 -131t-52.5 -84.5t-80.5 -45t-125 -13.5h-41z" />
<glyph unicode="~" horiz-adv-x="1722" d="M154 494q129 78 231 120.5t195 42.5q74 0 139 -23.5l137 -51.5q59 -25 126 -46.5t151 -21.5q178 0 421 150l17 73q-129 -78 -231.5 -120t-194.5 -42q-96 0 -183 35l-182 70q-51 18 -96 29.5t-90 11.5q-94 0 -199.5 -39t-224.5 -113z" />
<glyph unicode="&#xa9;" horiz-adv-x="1722" d="M109 578q0 -213 124 -369q84 -106 204 -162.5t268 -56.5q147 0 294.5 57t278.5 164q125 102 206 233t113 283q18 80 19 158q0 211 -121 362q-172 215 -477 215q-152 0 -294 -54t-269 -159q-129 -109 -214 -242t-116 -280q-8 -39 -12 -75.5t-4 -73.5zM176 592q0 72 14 135 q29 133 107 255t197 220q115 98 243.5 146.5t266.5 48.5q137 0 247.5 -49.5t186.5 -147.5q111 -135 110 -328q0 -68 -16 -145q-29 -139 -103.5 -258t-189.5 -211q-121 -98 -255 -150.5t-267 -52.5t-242.5 51.5t-185.5 149.5q-113 143 -113 336zM463 586q0 -150 77.5 -234 t217.5 -84q70 0 136.5 20.5t119.5 57.5t93 88t58 113h-75q-37 -94 -121 -152.5t-189 -58.5q-106 0 -165.5 68.5t-59.5 193.5q0 61 14 127q41 190 141.5 292.5t235.5 102.5q98 0 152.5 -49t56.5 -139h82q6 57 -11.5 103t-53 80t-89 52.5t-116.5 18.5q-86 0 -165 -32 t-142.5 -91t-110.5 -144t-70 -194q-16 -78 -16 -139z" />
<glyph unicode="&#xab;" horiz-adv-x="765" d="M92 539l189 -328h81l-182 328l318 311h-82zM344 539l188 -328h84l-184 328l320 311h-84z" />
<glyph unicode="&#xad;" horiz-adv-x="710" d="M74 506h549l12 57h-549z" />
<glyph unicode="&#xae;" horiz-adv-x="1722" d="M109 575q0 -213 124 -368q84 -106 204 -162.5t268 -56.5q147 0 293.5 57t279.5 166q125 102 206 232t113 282q18 80 19 160q0 211 -121 362q-86 104 -207 158.5t-270 54.5q-152 0 -294 -54t-269 -159q-129 -109 -214 -242t-116 -280q-8 -39 -12 -76t-4 -74zM176 592 q0 70 14 133q29 133 106 255t196 220q115 98 244.5 146.5t267.5 48.5q279 0 432 -197q113 -141 112 -330q0 -66 -16 -143q-59 -281 -291 -469q-121 -98 -256 -150.5t-268 -52.5t-241.5 51.5t-184.5 149.5q-115 143 -115 338zM492 307h88l82 387h262l102 -387h107l-109 402 q98 10 167 70.5t87 148.5q4 16 6 32.5t2 30.5q0 92 -76.5 133t-230.5 41h-305zM676 766l69 328h195q135 0 194.5 -37t41.5 -123q-23 -102 -94.5 -135t-213.5 -33h-192z" />
<glyph unicode="&#xbb;" horiz-adv-x="765" d="M14 211h84l324 309l-189 330h-83l184 -330zM268 211h82l324 309l-189 330h-82l183 -330z" />
<glyph unicode="&#x2c6;" horiz-adv-x="2068" d="M371 909h110l598 488l387 -488h111l-436 557h-99z" />
<glyph unicode="&#x400;" horiz-adv-x="1173" d="M596 1976l186 -332h66l-141 332h-111zM12 0h928l14 68h-858l144 675h766l14 64h-766l129 614h838l14 68h-907z" />
<glyph unicode="&#x401;" horiz-adv-x="1173" d="M-25 0h928l15 66h-859l144 675h766l14 64h-766l129 614h838l14 68h-907zM600 1718h92l25 115h-92zM920 1718h94l24 115h-94z" />
<glyph unicode="&#x402;" horiz-adv-x="1597" d="M160 1423h471l-303 -1423h69l146 682q45 18 87 31.5t88 22.5t98 13.5t120 4.5q84 0 154.5 -12.5t122 -45t80 -89t28.5 -144.5q0 -94 -33 -173t-89 -136.5t-132 -89t-162 -31.5q-33 0 -57.5 1t-48 6t-50 14t-65.5 28l-33 -64q82 -33 135.5 -40t118.5 -7q100 0 190.5 36 t158 102.5t106.5 162t39 215.5q0 90 -35 152.5t-92.5 101.5t-133 56.5t-155.5 17.5q-135 0 -232.5 -16.5t-193.5 -44.5l143 669h545l15 66h-1086z" />
<glyph unicode="&#x403;" horiz-adv-x="1052" d="M-29 0l316 1489h858l-15 -68h-788l-301 -1421h-70zM651 1567h66l327 331h-110z" />
<glyph unicode="&#x404;" horiz-adv-x="1406" d="M74 481q0 -248 124 -380t359 -132q125 0 235.5 37t200.5 104.5t154.5 165t97.5 218.5h-67q-29 -109 -86.5 -194t-137.5 -145.5t-180 -92t-213 -31.5q-199 0 -306.5 120.5t-107.5 346.5q0 106 29 243q0 6 1 11.5t3 11.5h721l12 61h-716q43 152 111.5 269.5t156.5 198.5 t191.5 123t217.5 42q209 0 317.5 -104.5t98.5 -296.5h70q2 16 3 29.5t1 27.5q0 92 -33 167t-93 128t-146 83t-191 30q-145 0 -273 -52.5t-231.5 -151.5t-178.5 -244.5t-114 -332.5q-30 -141 -30 -260z" />
<glyph unicode="&#x405;" horiz-adv-x="1185" d="M27 358q0 -186 107.5 -288.5t299.5 -102.5q125 0 233.5 39t189.5 107.5t127 164t46 207.5q0 94 -52 152.5t-157 99.5q-35 14 -82 29.5l-96 30.5l-96 28l-86 27q-88 29 -138.5 86t-50.5 141q0 86 37 156t99.5 121t145.5 78.5t173 27.5q158 0 250 -74.5t92 -209.5 q0 -23 -3 -45.5t-7 -47.5h65q6 27 8.5 51.5t2.5 47.5q0 154 -104.5 246t-287.5 92q-115 0 -213 -35t-170.5 -97.5t-113.5 -148.5t-41 -186q0 -104 57 -162.5t160 -97.5q37 -14 84 -29l96 -29l95 -28q46 -14 81 -29q88 -37 133 -86t45 -133q0 -92 -38.5 -170t-106.5 -136.5 t-161 -91t-199 -32.5q-168 0 -262.5 89t-94.5 249q0 39 6 86h-67q-6 -54 -6 -97z" />
<glyph unicode="&#x406;" horiz-adv-x="428" d="M23 0h67l316 1489h-68z" />
<glyph unicode="&#x407;" horiz-adv-x="428" d="M-14 0h69l316 1489h-70zM229 1667h70l37 174h-70zM451 1667h69l37 174h-70z" />
<glyph unicode="&#x408;" horiz-adv-x="978" d="M-12 242q0 -137 75.5 -207t217.5 -70q205 0 317.5 117t163.5 352l223 1055h-70l-219 -1034q-23 -104 -52.5 -184.5t-75.5 -133.5t-110.5 -80.5t-156.5 -27.5q-244 0 -244 233q0 31 4.5 65.5t12.5 75.5q4 12 8 27.5t8 34.5h-65q-8 -25 -12.5 -47.5t-8.5 -40.5 q-16 -78 -16 -135z" />
<glyph unicode="&#x409;" horiz-adv-x="2158" d="M-188 6q23 -2 42 -4t48 -2q63 0 117.5 37t97.5 96.5t77.5 136t60.5 157.5t45 158t32 138l149 702h801l-303 -1425h444q145 0 262 29.5t198 90t125 154t44 222.5q0 98 -33.5 158.5t-94 92t-146.5 43t-191 11.5h-370l145 688h-938l-150 -711l-28 -132q-16 -75 -39 -153.5 t-51.5 -154.5t-64.5 -135.5t-80 -96t-97 -36.5q-31 0 -47.5 3t-38.5 5zM1059 63l145 676h326q92 0 173 -4t142.5 -27.5t97 -74.5t35.5 -148q0 -127 -46 -208.5t-127 -129t-188.5 -66t-230.5 -18.5h-327z" />
<glyph unicode="&#x40a;" horiz-adv-x="2240" d="M10 0h72l162 764h940l-162 -764h446q141 0 257 30.5t199 94t129 157t46 220.5q0 86 -32.5 146.5t-93 100t-145.5 58t-188 18.5h-372l139 664h-70l-139 -664h-940l139 664h-71zM1104 63l149 701h328q86 0 166 -12.5t141.5 -43t98 -85t36.5 -138.5q0 -119 -47 -199.5 t-128 -130t-188.5 -71t-227.5 -21.5h-328z" />
<glyph unicode="&#x40b;" horiz-adv-x="1597" d="M172 1423h471l-303 -1423h70l145 682q45 18 87 31.5t88 22.5t98.5 13.5t119.5 4.5q80 0 150.5 -12.5t124 -44t85 -84t31.5 -132.5q0 -45 -12 -102l-80 -379h68l82 385q12 61 12 113q0 90 -35 150.5t-92 97t-132 53t-157 16.5q-133 0 -231 -16.5t-193 -44.5l144 669h544 l13 66h-1086z" />
<glyph unicode="&#x40c;" horiz-adv-x="1202" d="M-33 0h72l119 559l340 285l460 -844h84l-489 893l715 596h-88l-1004 -838l178 838h-71zM674 1567h65l328 331h-111z" />
<glyph unicode="&#x40d;" horiz-adv-x="1409" d="M676 1976l186 -332h66l-141 332h-111zM10 0l316 1489h69l-291 -1370l1223 1370h72l-316 -1489h-69l291 1368l-1225 -1368h-70z" />
<glyph unicode="&#x40e;" horiz-adv-x="1097" d="M70 -27q29 -4 45 -6t32 -2q86 0 147.5 41t123.5 139l801 1344h-80l-668 -1155l-264 1155h-80l295 -1225l-51 -86q-53 -78 -97.5 -113.5t-113.5 -37.5q-14 0 -38 3t-38 7zM446 1772q0 -92 56.5 -147.5t179.5 -55.5q143 0 230 74.5t114 197.5h-61q-33 -111 -100.5 -163 t-168.5 -52q-186 0 -186 168q0 10 1 22.5t3 24.5h-61q-7 -36 -7 -69z" />
<glyph unicode="&#x40f;" horiz-adv-x="1419" d="M51 0h512l-80 -375h66l80 375h501l318 1487h-68l-303 -1424h-942l303 1424h-69z" />
<glyph unicode="&#x410;" horiz-adv-x="1187" d="M-170 0h70l303 508h694l84 -508h68l-250 1489h-78zM240 569l503 838l142 -838h-645z" />
<glyph unicode="&#x411;" horiz-adv-x="1218" d="M0 0l315 1489h910l-13 -64h-839l-133 -624h370q104 0 190.5 -13.5t148 -47t95 -90t33.5 -142.5q0 -258 -167 -385t-464 -123h-446zM82 63h328q135 0 244.5 24t187.5 75t120 134t42 202q0 84 -35 132t-96.5 72.5t-143.5 30.5t-176 6h-326z" />
<glyph unicode="&#x412;" horiz-adv-x="1277" d="M12 0h453q131 0 232.5 13.5t187.5 60.5q55 29 101 75t79 102t51.5 119.5t18.5 129.5q0 119 -72 193.5t-221 86.5q90 20 158.5 61.5t115.5 98.5t70.5 126t23.5 142q0 145 -104 215q-61 41 -153.5 53.5t-219.5 12.5h-405zM94 63l146 685h370q227 0 340 -56.5t113 -191.5 q0 -141 -62.5 -236.5t-164.5 -146.5q-78 -41 -169.5 -47.5t-203.5 -6.5h-369zM252 801l133 624h342q205 0 310.5 -45t105.5 -172q0 -104 -38 -182t-108.5 -128t-172 -73.5t-226.5 -23.5h-346z" />
<glyph unicode="&#x413;" horiz-adv-x="1052" d="M14 0l316 1489h858l-14 -68h-789l-301 -1421h-70z" />
<glyph unicode="&#x414;" horiz-adv-x="1425" d="M-143 -360h67l78 360h1206l-78 -360h66l90 423h-143l303 1424h-920l-145 -680q-35 -164 -68.5 -279.5t-72.5 -200.5t-82 -147.5t-97 -116.5h-114zM143 63q45 43 87 111t79 153t69 184t54 208l150 706h780l-289 -1362h-930z" />
<glyph unicode="&#x415;" horiz-adv-x="1173" d="M12 0h928l14 68h-858l144 675h766l14 64h-766l129 614h838l14 68h-907z" />
<glyph unicode="&#x416;" horiz-adv-x="1904" d="M-199 0h84l803 827l191 -268l-119 -559h69l119 559l305 268l451 -827h84l-479 877l704 612h-88l-958 -838l178 838h-70l-178 -838l-602 838h-88l446 -612z" />
<glyph unicode="&#x417;" horiz-adv-x="1251" d="M8 358q0 -186 123 -288.5t342 -102.5q111 0 223.5 28t203.5 89t148.5 157.5t57.5 233.5q0 121 -76 202t-219 101q90 10 163 53t123 104.5t77.5 137.5t27.5 152q0 145 -108.5 221t-302.5 76q-109 0 -207.5 -34t-178 -93.5t-137 -138t-82.5 -171.5h66q20 80 72.5 149 t123 119t156.5 77.5t176 27.5q74 0 137.5 -16.5t111.5 -48t76 -80.5t28 -113q0 -84 -35 -155.5t-103.5 -126t-168 -86t-228.5 -31.5h-84l-12 -53h82q215 0 331.5 -74t116.5 -209q0 -123 -54 -206t-137 -134t-180.5 -72.5t-183.5 -21.5q-180 0 -288.5 91t-108.5 257 q0 35 6 76h-70q-8 -48 -8 -97z" />
<glyph unicode="&#x418;" horiz-adv-x="1409" d="M10 0l316 1489h69l-291 -1370l1223 1370h72l-316 -1489h-69l291 1368l-1225 -1368h-70z" />
<glyph unicode="&#x419;" horiz-adv-x="1409" d="M-27 0l316 1487h69l-290 -1370l1222 1370h72l-315 -1487h-70l289 1366l-1223 -1366h-70zM604 1767q0 -92 57.5 -146t180.5 -54q66 0 125 22.5t105 60.5t77 87t43 104h-70q-23 -109 -94.5 -162t-173.5 -53q-180 0 -180 146q0 16 2 33.5t6 35.5h-70q-8 -35 -8 -74z" />
<glyph unicode="&#x41a;" horiz-adv-x="1202" d="M10 0h72l119 559l340 285l460 -844h84l-487 893l713 596h-88l-1004 -838l178 838h-71z" />
<glyph unicode="&#x41b;" horiz-adv-x="1374" d="M-188 6q23 -2 42 -4t48 -2q88 0 157.5 69.5t121.5 176t89 233.5t62 240l151 706h799l-303 -1425h68l315 1489h-936l-143 -682q-29 -133 -64 -265t-80 -236.5t-100 -170t-125 -65.5q-31 0 -47.5 3t-38.5 5z" />
<glyph unicode="&#x41c;" horiz-adv-x="1599" d="M12 0h62l297 1401l237 -1401h66l833 1401l-297 -1401h62l315 1489h-96l-829 -1401l-236 1401h-98z" />
<glyph unicode="&#x41d;" horiz-adv-x="1417" d="M10 0h70l162 764h942l-162 -764h70l315 1489h-70l-139 -664h-942l139 664h-69z" />
<glyph unicode="&#x41e;" horiz-adv-x="1533" d="M82 500q0 -256 133 -394.5t385 -138.5q174 0 328.5 75t271.5 210t184.5 322.5t67.5 412.5q0 256 -134 395.5t-386 139.5q-174 0 -328.5 -79t-270.5 -216t-183.5 -324.5t-67.5 -402.5zM154 514q0 199 63.5 371t169 299t243.5 200.5t288 73.5q223 0 342.5 -127t119.5 -358 q0 -205 -62.5 -378t-168 -298t-243.5 -195.5t-292 -70.5q-223 0 -341.5 127t-118.5 356z" />
<glyph unicode="&#x41f;" horiz-adv-x="1417" d="M10 0h70l303 1427h940l-303 -1427h72l315 1489h-1081z" />
<glyph unicode="&#x420;" horiz-adv-x="1189" d="M12 0h70l145 688h330q135 0 252 27.5t203 89t136 159t50 236.5q0 150 -115.5 219.5t-349.5 69.5h-405zM242 750l143 675h285q121 0 207 -8t145 -45q102 -61 102 -190q0 -141 -51 -226.5t-136 -131.5t-192.5 -60t-220.5 -14h-282z" />
<glyph unicode="&#x421;" horiz-adv-x="1406" d="M74 481q0 -248 124 -380t359 -132q125 0 235.5 37t200.5 104.5t154.5 165t97.5 218.5h-67q-29 -109 -86.5 -194t-137.5 -145.5t-180 -92t-213 -31.5q-199 0 -306.5 120.5t-107.5 346.5q0 211 60.5 388t162 304t232.5 197.5t272 70.5q209 0 317.5 -104.5t98.5 -296.5h70 q2 16 3 29.5t1 27.5q0 92 -33 167t-93 128t-146 83t-191 30q-166 0 -316.5 -76t-264 -213t-180 -329t-66.5 -423z" />
<glyph unicode="&#x422;" horiz-adv-x="1054" d="M172 1423h471l-303 -1423h70l303 1423h463l12 66h-1004z" />
<glyph unicode="&#x423;" horiz-adv-x="1097" d="M109 -27q27 -4 43 -6t32 -2q86 0 147.5 41t125.5 139l798 1344h-79l-668 -1155l-264 1155h-80l295 -1225l-51 -86q-53 -78 -96.5 -113.5t-114.5 -37.5q-14 0 -38 3t-38 7z" />
<glyph unicode="&#x424;" horiz-adv-x="1695" d="M63 639q0 -119 49.5 -204t133.5 -139t198.5 -80t245.5 -26l-41 -190h70l41 190q160 -2 315.5 40t280.5 131.5t201.5 225.5t76.5 324q0 217 -162.5 330t-463.5 113l34 168h-69l-35 -168q-188 0 -348 -48.5t-276.5 -140.5t-183.5 -225t-67 -301zM139 645q0 172 66.5 295 t177.5 202t252 115.5t289 34.5l-222 -1038q-125 0 -228 22.5t-178 69.5t-116 122t-41 177zM772 254l221 1038q119 0 222.5 -22.5t180.5 -69.5t121 -121.5t44 -181.5q0 -166 -67 -288t-176.5 -201.5t-251.5 -117.5t-294 -36z" />
<glyph unicode="&#x425;" horiz-adv-x="1097" d="M-156 0h78l615 702l321 -702h80l-344 764l631 725h-78l-582 -670l-301 670h-82l330 -727z" />
<glyph unicode="&#x426;" horiz-adv-x="1419" d="M51 0h1133l-78 -360h65l91 423h-119l303 1424h-68l-303 -1424h-942l303 1424h-69z" />
<glyph unicode="&#x427;" horiz-adv-x="1271" d="M205 991q0 -90 34.5 -150.5t92 -97t132.5 -53t157 -16.5q68 0 124 4t107 12t98 19.5t94 25.5l-155 -735h67l316 1489h-68l-143 -682q-45 -18 -87 -31.5t-88 -23t-99.5 -13.5t-120.5 -4q-80 0 -151 12.5t-124 44t-85 84t-32 132.5q0 43 13 102l80 379h-68l-82 -385 q-12 -62 -12 -113z" />
<glyph unicode="&#x428;" horiz-adv-x="2015" d="M12 0h1674l315 1489h-72l-303 -1426h-731l303 1426h-70l-303 -1426h-729l303 1426h-71z" />
<glyph unicode="&#x429;" horiz-adv-x="2027" d="M49 0h1725l-76 -358h65l90 424h-116l303 1423h-72l-303 -1426h-731l303 1426h-70l-303 -1426h-729l303 1426h-71z" />
<glyph unicode="&#x42a;" horiz-adv-x="1339" d="M76 1425l12 64h418l-146 -688h371q104 0 190.5 -11.5t146.5 -43t94 -92t34 -158.5q0 -125 -45 -219.5t-128 -156t-198.5 -92t-257.5 -28.5h-448l303 1425h-346zM203 63h325q123 0 230.5 21.5t188.5 71t128 130.5t47 199q0 96 -35.5 148.5t-97 76t-143.5 26.5t-174 3h-324 z" />
<glyph unicode="&#x42b;" horiz-adv-x="1662" d="M27 0l315 1489h70l-146 -688h371q104 0 190 -11.5t147.5 -44t95.5 -93t34 -158.5q0 -127 -44 -220.5t-127 -154t-200 -90t-260 -29.5h-446zM109 63h327q104 0 210 20.5t191 70t138 130.5t53 201q0 96 -37 148.5t-98.5 76t-142 26.5t-170.5 3h-326zM1264 0h67l316 1489 h-68z" />
<glyph unicode="&#x42c;" horiz-adv-x="1255" d="M37 0l315 1489h70l-146 -688h371q104 0 190.5 -11.5t146.5 -43t94 -92t34 -158.5q0 -127 -43 -220.5t-124 -155t-197.5 -91t-264.5 -29.5h-446zM119 63h327q119 0 226.5 21.5t189.5 72t129 131.5t47 197q0 96 -36.5 148.5t-98 76t-142.5 26.5t-171 3h-326z" />
<glyph unicode="&#x42d;" horiz-adv-x="1406" d="M41 391q0 -197 124 -308.5t347 -111.5q145 0 283.5 57.5t244.5 168.5q135 137 210 342.5t75 461.5q0 254 -128 388.5t-366 134.5q-115 0 -219 -34t-191 -95.5t-151.5 -146.5t-97.5 -189h70q74 193 226.5 297t360.5 104q199 0 309.5 -124t110.5 -355q0 -74 -12 -154h-717 l-12 -61h721q-35 -174 -98.5 -308t-153.5 -229q-184 -195 -440 -194q-205 0 -316.5 97t-111.5 271q0 23 2 45.5t6 47.5h-68q-4 -29 -6 -54.5t-2 -50.5z" />
<glyph unicode="&#x42e;" horiz-adv-x="2052" d="M27 4h69l162 764h373q-2 -6 -2 -12q0 -4 -2 -8q-14 -66 -20.5 -127.5t-6.5 -116.5q0 -256 133 -394.5t385 -138.5q174 0 329 75t271.5 210t184 322.5t67.5 412.5q0 256 -134 395.5t-386 139.5q-145 0 -272 -47t-230.5 -136.5t-180.5 -218.5t-122 -295h-373l140 664h-70z M672 518q0 109 26 230q35 168 103.5 300t164 224t214 141t256.5 49q223 0 342.5 -127t119.5 -358q0 -207 -61 -380t-165.5 -298t-244 -194.5t-294.5 -69.5q-223 0 -342 127t-119 356z" />
<glyph unicode="&#x42f;" horiz-adv-x="1189" d="M-111 0h82l502 688h442l-145 -688h70l315 1489h-405q-150 2 -266.5 -26.5t-197.5 -89t-123 -155t-42 -225.5q0 -133 76.5 -204.5t205.5 -92.5zM195 1006q0 127 45 209.5t120.5 130t175 64.5t205.5 15h332l-143 -675h-375q-78 0 -144.5 12t-114.5 42t-74.5 79t-26.5 123z " />
<glyph unicode="&#x430;" horiz-adv-x="1048" d="M14 207q0 -104 66.5 -170t191.5 -66q147 0 269.5 55.5t206.5 153.5l-7.5 -46t-3.5 -38q0 -53 28 -74.5t87 -21.5h57l13 59h-39q-43 0 -59.5 13.5t-16.5 46.5q0 20 4 47t12 63l113 523q8 37 13 68.5t5 60.5q0 111 -83 166t-230 53q-186 -2 -310 -90t-161 -238h61 q35 127 139.5 197.5t270.5 70.5q123 0 185.5 -44t62.5 -128q0 -6 -1 -14l-3 -24q-2 -15 -7 -40l-14 -67q-8 -41 -32.5 -61.5t-66.5 -30.5t-104.5 -16.5t-146.5 -16.5q-123 -14 -216 -41t-155.5 -73t-95.5 -113.5t-33 -163.5zM78 217q0 82 30.5 139.5t90 95t147.5 61.5 t203 36q121 14 191.5 24.5t99.5 38.5l-33 -157q-12 -55 -25.5 -99.5t-33 -82t-47 -69.5t-68.5 -63q-66 -47 -152 -75.5t-178 -28.5q-225 0 -225 180z" />
<glyph unicode="&#x431;" horiz-adv-x="1052" d="M6 365q0 -102 28.5 -176t78 -122.5t117 -72t147.5 -23.5q117 0 226.5 53.5t194.5 148.5t136 225t51 284q0 174 -95 269.5t-269 95.5q-86 0 -188.5 -37t-188.5 -119q-25 -25 -49.5 -55.5t-42.5 -65.5h-19q37 123 86 219t115.5 165t151.5 110t196 57q98 14 165.5 22.5 t113 23.5t74 42t50.5 76h-59q-18 -37 -45 -54.5t-69 -25.5t-98 -14.5t-132 -18.5q-125 -23 -231.5 -74t-184.5 -141q-51 -59 -98 -150.5t-83 -198t-57.5 -222t-21.5 -221.5zM72 371q0 164 53 281.5t133 193.5t174 111.5t178 35.5q141 0 224.5 -85t83.5 -240 q0 -139 -46.5 -256t-121 -201t-169 -132t-192.5 -48q-68 0 -126 20.5t-100 62.5t-66.5 105.5t-24.5 151.5z" />
<glyph unicode="&#x432;" horiz-adv-x="960" d="M10 0l230 1075h366q133 0 214 -49t81 -154q0 -113 -74.5 -197.5t-232.5 -109.5q115 -12 183.5 -70.5t68.5 -148.5q0 -78 -35 -141.5t-91 -108.5t-128 -70.5t-146 -25.5h-436zM86 59h342q72 0 136.5 18.5t111.5 54.5t74.5 88t27.5 120q0 53 -31.5 91t-80 61.5t-105.5 35 t-108 11.5h-265zM201 596h264q66 0 131.5 15.5t117.5 47t84.5 82t32.5 121.5q0 68 -65.5 111t-200.5 43h-274z" />
<glyph unicode="&#x433;" horiz-adv-x="882" d="M27 0h67l217 1016h664l12 59h-731z" />
<glyph unicode="&#x434;" horiz-adv-x="1085" d="M-113 -276h66l59 276h899l-59 -274h66l71 331h-115l216 1018h-687l-100 -477q-41 -193 -102.5 -320.5t-147.5 -220.5h-94zM121 57q78 78 141.5 210t106.5 331l88 422h555l-203 -963h-688z" />
<glyph unicode="&#x435;" horiz-adv-x="1044" d="M70 354q0 -184 94 -283.5t262 -99.5q80 0 155.5 24.5t141 70t118 109t87.5 140.5h-64q-66 -135 -179.5 -209.5t-246.5 -74.5q-139 0 -220 88t-81 248q0 35 4 70.5t13 76.5l4 16h837l9 39q18 88 18 164q0 176 -93 270.5t-265 94.5q-102 0 -194.5 -39t-167.5 -110.5 t-129 -177t-83 -236.5q-20 -95 -20 -181zM172 590q57 213 189.5 330.5t302.5 117.5q133 0 210.5 -82t77.5 -231q0 -66 -14 -135h-766z" />
<glyph unicode="&#x436;" horiz-adv-x="1464" d="M-137 0h74l552 629l179 -242l-82 -387h61l82 387l285 242l282 -629h74l-303 676l467 399h-80l-709 -612l132 612h-62l-131 -612l-446 612h-80l295 -399z" />
<glyph unicode="&#x437;" horiz-adv-x="960" d="M37 266q0 -141 87 -218t251 -77q98 0 183 29t148.5 78t100.5 116.5t37 145.5q0 88 -58.5 142.5t-140.5 74.5q82 16 135.5 54t83 84t40.5 93.5t11 81.5q0 98 -74.5 163t-228.5 65q-80 0 -147.5 -22.5t-122.5 -62.5t-96 -94.5t-66 -117.5h66q51 117 143 177t215 60 q115 0 178.5 -51t63.5 -129q0 -76 -30 -127t-79 -83t-111.5 -45t-127.5 -13h-123l-13 -58h89q70 0 129 -12t103 -37.5t68.5 -64.5t24.5 -90q0 -66 -31.5 -121t-86 -94t-125 -60.5t-150.5 -21.5q-129 0 -205 61.5t-76 171.5v27q0 12 4 28h-65q-2 -14 -3 -27.5t-1 -25.5z" />
<glyph unicode="&#x438;" horiz-adv-x="1112" d="M29 0h65l905 967l-206 -967h65l229 1075h-65l-905 -969l207 969h-66z" />
<glyph unicode="&#x439;" horiz-adv-x="1110" d="M-16 0h65l903 967l-204 -967h65l227 1075h-65l-903 -969l204 969h-65zM428 1415q0 -92 57.5 -147.5t180.5 -55.5q143 0 229 76t115 199h-62q-33 -113 -100.5 -164t-167.5 -51q-92 0 -139 40t-47 128q0 10 1 22.5t3 24.5h-62q-4 -18 -6 -37t-2 -35z" />
<glyph unicode="&#x43a;" horiz-adv-x="948" d="M29 0h65l80 377l315 258l289 -635h82l-313 684l483 391h-82l-755 -618l131 618h-66z" />
<glyph unicode="&#x43b;" horiz-adv-x="1073" d="M-102 -14h63q74 -2 127 47t92 130t66.5 183.5t50.5 206.5l96 461h574l-215 -1014h65l230 1073h-705l-111 -520q-20 -96 -44.5 -188.5t-56.5 -163t-73 -113.5t-96 -43h-51z" />
<glyph unicode="&#x43c;" horiz-adv-x="1361" d="M29 0h65l203 954l248 -917h63l637 917l-203 -954h66l229 1075h-67l-678 -969l-266 969h-68z" />
<glyph unicode="&#x43d;" d="M29 0h65l113 528h665l-112 -528h65l230 1075h-66l-104 -489h-666l105 489h-66z" />
<glyph unicode="&#x43e;" horiz-adv-x="1128" d="M72 358q0 -184 97 -285.5t275 -101.5q109 0 204 39t172 111t132.5 176t83.5 238q10 47 15.5 91t5.5 85q0 186 -97.5 286.5t-277.5 100.5q-109 0 -204 -39t-171 -110.5t-131 -177t-84 -236.5q-10 -47 -15 -91.5t-5 -85.5zM139 371q0 74 19 164q51 242 188 372.5t324 130.5 q152 0 235.5 -88t83.5 -254q0 -74 -18 -161q-51 -242 -189.5 -373t-324.5 -131q-152 0 -235 87t-83 253z" />
<glyph unicode="&#x43f;" d="M29 0h65l217 1016h666l-217 -1016h65l230 1075h-797z" />
<glyph unicode="&#x440;" horiz-adv-x="1183" d="M-18 -428h65l141 661q23 -127 112 -194.5t237 -67.5q109 0 204 39t172.5 111t133 176t83.5 238q10 47 15.5 91t5.5 85q0 186 -97.5 286.5t-277.5 100.5q-150 0 -266.5 -68.5t-196.5 -202.5l54 246h-66zM233 371q0 74 19 164q51 240 188.5 371.5t323.5 131.5 q152 0 235.5 -88t83.5 -254q0 -76 -18 -161q-51 -242 -189.5 -373t-324.5 -131q-152 0 -235 87t-83 253z" />
<glyph unicode="&#x441;" horiz-adv-x="1075" d="M72 358q0 -186 96 -286.5t270 -100.5q88 0 167 26t144.5 75t113.5 118.5t77 155.5h-61q-25 -72 -68 -130t-98.5 -99t-121 -63.5t-134.5 -22.5q-152 0 -235 87t-83 253q0 147 43 270t117 211t170 137t201 49q135 0 211.5 -74.5t70.5 -203.5h66q12 160 -76 249t-260 89 q-123 0 -233.5 -54.5t-194.5 -151.5t-133 -233.5t-49 -300.5z" />
<glyph unicode="&#x442;" horiz-adv-x="964" d="M113 1016h440l-217 -1016h65l217 1016h441l12 59h-946z" />
<glyph unicode="&#x443;" horiz-adv-x="903" d="M-57 -430h75q88 0 154 66.5t145 201.5l730 1237h-70l-582 -997l-159 997h-64l170 -1083l-143 -236q-37 -63 -76 -95t-90 -32h-78z" />
<glyph unicode="&#x444;" horiz-adv-x="1837" d="M63 350q0 -180 88.5 -279.5t247.5 -99.5q129 0 236.5 64.5t183.5 181.5l-135 -643h66l135 643q27 -117 107.5 -181.5t209.5 -64.5q111 0 214.5 55.5t184 156t129 236.5t48.5 300q0 180 -88 280.5t-248 100.5q-129 0 -236.5 -64.5t-183.5 -181.5l133 633h-65l-134 -633 q-27 117 -107.5 181.5t-209.5 64.5q-111 0 -214 -57.5t-184 -158t-129.5 -237.5t-48.5 -297zM131 358q0 135 42 259t110.5 218.5t157.5 149.5t186 55q76 0 130 -24.5t88 -67.5t49 -101.5t15 -125.5q0 -156 -46 -301.5t-138 -245.5q-59 -66 -138 -104.5t-175 -38.5 q-133 0 -207 84.5t-74 242.5zM930 324q-2 111 26.5 232.5t83.5 225.5q33 61 74 112.5t90 86.5t105.5 51.5t120.5 7.5q135 0 208.5 -85t73.5 -244q0 -145 -43 -270.5t-113.5 -216.5t-159.5 -142t-182 -51q-78 0 -132 22.5t-87.5 61.5t-49 92.5t-15.5 116.5z" />
<glyph unicode="&#x445;" horiz-adv-x="847" d="M-125 0h76l465 504l252 -504h75l-278 555l481 520h-76l-432 -467l-239 467h-78l266 -520z" />
<glyph unicode="&#x446;" horiz-adv-x="1085" d="M59 0h846l-59 -279h65l72 338h-117l215 1016h-65l-215 -1016h-664l215 1016h-65z" />
<glyph unicode="&#x447;" horiz-adv-x="1028" d="M188 700q0 -76 25 -126t67 -79.5t98 -42t120 -12.5q86 0 173 13.5t144 35.5l-110 -489h65l229 1075h-65l-109 -516l-67 -25q-31 -11 -65 -18.5t-76 -11.5t-101 -4q-145 0 -203.5 53t-58.5 152q0 27 4 55t10 61l54 254h-66l-53 -254q-15 -64 -15 -121z" />
<glyph unicode="&#x448;" horiz-adv-x="1583" d="M29 0h1294l229 1077h-65l-217 -1018h-549l217 1018h-66l-217 -1018h-549l218 1018h-66z" />
<glyph unicode="&#x449;" horiz-adv-x="1583" d="M59 0h1344l-60 -279h66l72 338h-115l215 1016h-65l-216 -1016h-548l215 1016h-66l-215 -1016h-549l215 1016h-65z" />
<glyph unicode="&#x44a;" horiz-adv-x="1034" d="M96 1016l13 59h292l-102 -481h262q188 0 274.5 -51t86.5 -162q0 -84 -33 -153.5t-88.5 -121t-129 -79t-155.5 -27.5h-410l218 1016h-228zM184 59h320q72 0 135 19.5t110.5 58.5t75 95.5t27.5 129.5q0 94 -79 134.5t-247 40.5h-239z" />
<glyph unicode="&#x44b;" horiz-adv-x="1304" d="M12 0l230 1075h65l-102 -481h262q188 0 274 -51t86 -162q0 -84 -32.5 -153.5t-88 -121t-129 -79t-155.5 -27.5h-410zM90 59h320q70 0 133 20.5t110 59.5t76 95.5t29 127.5q0 94 -78 134.5t-240 40.5h-247zM991 0h66l229 1075h-65z" />
<glyph unicode="&#x44c;" horiz-adv-x="940" d="M12 0l230 1075h65l-102 -481h262q188 0 274 -51t86 -162q0 -82 -32.5 -151.5t-88 -121t-129 -80t-155.5 -28.5h-410zM90 59h320q70 0 133 20.5t111 58.5t76 94.5t28 129.5q0 94 -78 134.5t-240 40.5h-247z" />
<glyph unicode="&#x44d;" horiz-adv-x="1075" d="M49 293v24q0 14 2 29h62q-12 -145 68.5 -230t221.5 -85q190 0 330 135q129 129 182 364h-516l13 58h516q4 29 6 55.5t2 50.5q0 164 -81 254t-230 90q-135 0 -248 -74.5t-162 -203.5h-65q55 160 185 249t302 89q178 0 271 -99.5t93 -281.5t-58 -329.5t-159 -248.5 q-80 -80 -181 -124t-206 -44q-164 0 -256 85t-92 237z" />
<glyph unicode="&#x44e;" horiz-adv-x="1478" d="M18 -2h66l115 532h243q-20 -90 -20 -174q0 -184 97 -284.5t278 -100.5q119 0 230.5 54.5t195.5 152.5t135 233.5t51 299.5q0 186 -97.5 286.5t-277.5 100.5q-102 0 -193 -35t-166 -101.5t-130.5 -160.5t-87.5 -213h-246l102 485h-65zM489 367q0 74 19 163 q51 242 189.5 375t324.5 133q152 0 235.5 -88t83.5 -254q0 -147 -44 -270t-117.5 -211t-170 -136t-200.5 -48q-152 0 -236 86t-84 250z" />
<glyph unicode="&#x44f;" horiz-adv-x="940" d="M-76 0h74l426 483h301l-102 -483h65l230 1075h-386q-76 0 -151.5 -19.5t-137 -62.5t-100.5 -111.5t-39 -166.5q0 -88 60.5 -148.5t191.5 -74.5zM174 733q0 70 27.5 124t76 89t111 53.5t129.5 18.5h322l-103 -477h-243q-166 0 -243 53t-77 139z" />
<glyph unicode="&#x450;" horiz-adv-x="1044" d="M471 1552l186 -332h66l-141 332h-111zM70 354q0 -184 94 -283.5t262 -99.5q80 0 155.5 24.5t141 70t118 109t87.5 140.5h-64q-66 -135 -179.5 -209.5t-246.5 -74.5q-139 0 -220 88t-81 248q0 35 4 70.5t13 76.5l4 16h837l9 39q18 88 18 164q0 176 -93 270.5t-265 94.5 q-102 0 -194.5 -39t-167.5 -110.5t-129 -177t-83 -236.5q-20 -95 -20 -181zM172 590q57 213 189.5 330.5t302.5 117.5q133 0 210.5 -82t77.5 -231q0 -66 -14 -135h-766z" />
<glyph unicode="&#x451;" horiz-adv-x="1083" d="M37 352q0 -182 93 -281.5t261 -99.5q80 0 156 23.5t141.5 69t118.5 109t88 140.5h-64q-66 -135 -180 -209.5t-248 -74.5q-139 0 -219 88t-80 248q0 35 3.5 70.5t13.5 76.5l2 16h838l8 39q18 88 18 168q0 174 -92 267.5t-264 93.5q-117 0 -224.5 -55.5t-189.5 -154 t-131 -235.5t-49 -299zM139 590q57 211 189.5 329.5t302.5 118.5q133 0 211 -84t78 -233q0 -66 -15 -131h-766zM473 1294h92l25 115h-92zM793 1294h94l24 115h-94z" />
<glyph unicode="&#x452;" horiz-adv-x="1099" d="M51 0h66l123 575q12 55 24 104.5t29.5 93.5t43 83t64.5 74q119 106 301 106q129 0 186.5 -50t57.5 -159q0 -53 -16 -135l-178 -833q-12 -61 -24.5 -103.5t-31 -69t-50.5 -37.5t-83 -11h-24l-13 -64h39q63 0 104.5 14.5t68 45t43 80.5t32.5 122l186 877q14 66 15 129 q0 256 -301 256q-129 0 -231.5 -51.5t-174.5 -147.5l76 350h358l13 62h-359l37 178h-65l-37 -178h-115l-12 -62h114z" />
<glyph unicode="&#x453;" horiz-adv-x="882" d="M2 0h68l215 1016h663l15 59h-732zM555 1128h66l233 185h-113z" />
<glyph unicode="&#x454;" horiz-adv-x="1075" d="M72 358q0 -186 96 -286.5t270 -100.5q88 0 167 26t144.5 75t113.5 118.5t77 155.5h-61q-25 -72 -68 -130t-98.5 -99t-121 -63.5t-134.5 -22.5q-150 0 -234 87t-84 253q0 74 19 159h516l12 58h-516q59 213 192.5 331.5t307.5 118.5q135 0 211.5 -74.5t70.5 -203.5h66 q12 160 -76 249t-260 89q-123 0 -233.5 -54.5t-194.5 -151.5t-133 -233.5t-49 -300.5z" />
<glyph unicode="&#x455;" horiz-adv-x="993" d="M53 266q0 -141 88 -218t252 -77q94 0 177 29t144.5 79t97.5 117.5t36 145.5q0 59 -32 100t-91 70q-29 12 -65.5 25.5t-77.5 25.5l-82 25l-74 22q-80 27 -125 62t-45 100q0 57 25.5 105.5t71.5 84t108.5 56t136.5 20.5q133 0 197.5 -63.5t54.5 -186.5h65q2 12 3 23v23 q0 123 -79 193.5t-221 70.5q-92 0 -171.5 -27t-138 -73t-91.5 -107.5t-33 -132.5q0 -43 16.5 -77t45 -59.5t67.5 -45t84 -33.5q45 -16 96.5 -28.5t110.5 -29.5q172 -49 172 -163q0 -66 -29.5 -119t-81 -90t-119 -57.5t-143.5 -20.5q-289 0 -282 284h-66q-2 -14 -2 -28v-25z " />
<glyph unicode="&#x456;" horiz-adv-x="362" d="M-8 0h63l228 1075h-64zM270 1313h64l37 174h-64z" />
<glyph unicode="&#x457;" horiz-adv-x="362" d="M-10 0h65l228 1075h-66zM160 1315h65l37 174h-65zM377 1315h65l37 174h-65z" />
<glyph unicode="&#x458;" horiz-adv-x="360" d="M-219 -428h39q63 0 104 14.5t67.5 45t43 80.5t33.5 122l264 1241h-66l-260 -1218q-12 -61 -24.5 -103.5t-31 -69t-50 -38t-82.5 -11.5h-25zM315 1313h66l37 174h-66z" />
<glyph unicode="&#x459;" horiz-adv-x="1673" d="M-102 -8q12 -4 29.5 -5t33.5 -1q74 -2 127 47t92 130t66.5 183.5t50.5 206.5l96 461h574l-215 -1014h409q82 0 156 28.5t129 79t88 120t33 153.5q0 111 -86 162t-275 51h-262l103 479h-705l-111 -520q-20 -96 -44.5 -188.5t-56.5 -163t-73 -113.5t-96 -43q-10 0 -22.5 1 t-28.5 5zM829 59l103 478h248q162 0 239.5 -40t77.5 -132q0 -74 -27.5 -131.5t-74.5 -95.5t-110.5 -58.5t-135.5 -20.5h-320z" />
<glyph unicode="&#x45a;" horiz-adv-x="1681" d="M29 0h65l113 528h665l-112 -528h409q82 0 156 28.5t129 79t88 120t33 151.5q0 111 -87 159t-276 48h-262l105 489h-66l-104 -489h-666l105 489h-66zM838 59l100 469h248q164 0 241.5 -37.5t77.5 -130.5q0 -72 -27.5 -128t-75.5 -95t-111.5 -58.5t-133.5 -19.5h-319z" />
<glyph unicode="&#x45b;" horiz-adv-x="1099" d="M6 0h66l123 575q12 55 24 104.5t29.5 93.5t43 83t64.5 74q119 106 299 106q129 0 187.5 -50t58.5 -159q0 -53 -16 -135l-148 -692h66l151 713q14 66 15 129q0 256 -301 256q-129 0 -231.5 -51.5t-174.5 -147.5l76 350h358l13 62h-359l37 176h-65l-37 -176h-115l-12 -62 h114z" />
<glyph unicode="&#x45c;" horiz-adv-x="948" d="M4 0h66l82 383l317 254l289 -637h73l-307 684l473 389h-79l-750 -610l131 610h-66zM516 1124h66l233 185h-113z" />
<glyph unicode="&#x45d;" horiz-adv-x="1112" d="M485 1552l186 -332h66l-141 332h-111zM29 0h65l905 967l-206 -967h65l229 1075h-65l-905 -969l207 969h-66z" />
<glyph unicode="&#x45e;" horiz-adv-x="903" d="M-100 -426h75q88 0 154 66.5t145 201.5l730 1237h-70l-584 -997l-157 997h-64l170 -1077l-143 -242q-39 -63 -77 -92.5t-89 -29.5q-35 0 -74 12zM383 1409q0 -96 58.5 -146.5t179.5 -50.5q143 0 229 72t115 203h-62q-33 -113 -100.5 -164t-167.5 -51q-92 0 -139 40 t-47 128q0 10 1 22.5t3 24.5h-62q-8 -39 -8 -78z" />
<glyph unicode="&#x45f;" horiz-adv-x="1077" d="M59 0h367l-59 -274h65l60 274h362l227 1075h-65l-215 -1016h-664l215 1016h-65z" />
<glyph unicode="&#x490;" horiz-adv-x="1052" d="M-23 0l316 1489h792l76 352h66l-90 -420h-789l-301 -1421h-70z" />
<glyph unicode="&#x491;" horiz-adv-x="882" d="M2 0h68l215 1016h663l64 295h-60l-49 -236h-672z" />
<glyph unicode="&#x4ae;" horiz-adv-x="1097" d="M160 1489l336 -830l-140 -659h68l139 655l688 834h-80l-622 -760l-309 760h-80z" />
<glyph unicode="&#x4c0;" horiz-adv-x="428" d="M23 0h67l316 1489h-68z" />
<glyph unicode="&#x2000;" horiz-adv-x="987" />
<glyph unicode="&#x2001;" horiz-adv-x="1976" />
<glyph unicode="&#x2002;" horiz-adv-x="987" />
<glyph unicode="&#x2003;" horiz-adv-x="1976" />
<glyph unicode="&#x2004;" horiz-adv-x="657" />
<glyph unicode="&#x2005;" horiz-adv-x="493" />
<glyph unicode="&#x2006;" horiz-adv-x="327" />
<glyph unicode="&#x2007;" horiz-adv-x="327" />
<glyph unicode="&#x2008;" horiz-adv-x="245" />
<glyph unicode="&#x2009;" horiz-adv-x="395" />
<glyph unicode="&#x200a;" horiz-adv-x="108" />
<glyph unicode="&#x2010;" horiz-adv-x="710" d="M74 506h549l12 57h-549z" />
<glyph unicode="&#x2011;" horiz-adv-x="710" d="M74 506h549l12 57h-549z" />
<glyph unicode="&#x2012;" horiz-adv-x="710" d="M74 506h549l12 57h-549z" />
<glyph unicode="&#x2013;" horiz-adv-x="1032" d="M-4 514h1032l8 45h-1032z" />
<glyph unicode="&#x2014;" horiz-adv-x="2068" d="M-4 512h2068l9 45h-2069z" />
<glyph unicode="&#x2018;" horiz-adv-x="489" d="M178 1487l60 -404h73l-61 404h-72z" />
<glyph unicode="&#x2019;" horiz-adv-x="489" d="M92 1083h72l231 404h-71z" />
<glyph unicode="&#x201a;" horiz-adv-x="489" d="M53 -211h74l231 404h-73z" />
<glyph unicode="&#x201c;" horiz-adv-x="788" d="M180 1487l58 -404h73l-61 404h-70zM475 1487l60 -404h71l-57 404h-74z" />
<glyph unicode="&#x201d;" horiz-adv-x="788" d="M94 1083h70l231 404h-71zM389 1083h74l229 404h-69z" />
<glyph unicode="&#x201e;" horiz-adv-x="788" d="M55 -211h72l231 404h-73zM352 -211h72l229 404h-69z" />
<glyph unicode="&#x2026;" horiz-adv-x="2068" d="M287 0h65l37 178h-65zM975 0h65l37 178h-65zM1665 0h66l36 178h-65z" />
<glyph unicode="&#x202f;" horiz-adv-x="395" />
<glyph unicode="&#x2039;" horiz-adv-x="512" d="M90 539l189 -328h83l-182 328l318 311h-84z" />
<glyph unicode="&#x203a;" horiz-adv-x="512" d="M12 211h86l324 309l-189 330h-86l185 -330z" />
<glyph unicode="&#x205f;" horiz-adv-x="493" />
<glyph unicode="&#x2122;" horiz-adv-x="1722" d="M334 1421h180l-102 -489h59l102 489h175l10 41h-414zM780 932h49l105 493l94 -493h45l291 493l-104 -493h49l112 530h-88l-268 -458l-84 458h-88z" />
<glyph unicode="&#xe000;" horiz-adv-x="1075" d="M0 1075h1075v-1075h-1075v1075z" />
</font>
</defs>
</svg>
