<?xml version="1.0" standalone="no"?>
<!DOCTYPE svg PUBLIC "-//W3C//DTD SVG 1.1//EN" "http://www.w3.org/Graphics/SVG/1.1/DTD/svg11.dtd" >
<svg xmlns="http://www.w3.org/2000/svg">
<metadata>
This is a custom SVG webfont generated by Font Squirrel.
Copyright   : Copyright C 1993 Type Market Ltd Moscow 119136 Box 20 phone0951427712 Created by AKustov
</metadata>
<defs>
<font id="HeliosLightRegular" horiz-adv-x="1138" >
<font-face units-per-em="2048" ascent="1638" descent="-410" />
<missing-glyph horiz-adv-x="569" />
<glyph unicode=" "  horiz-adv-x="569" />
<glyph unicode="&#x09;" horiz-adv-x="569" />
<glyph unicode="&#xa0;" horiz-adv-x="569" />
<glyph unicode="!" horiz-adv-x="681" d="M266 0h150v180h-150v-180zM266 1016l29 -645h92l29 645v459h-150v-459z" />
<glyph unicode="&#x22;" horiz-adv-x="569" d="M117 1012h106v463h-106v-463zM344 1012h107v463h-107v-463z" />
<glyph unicode="#" d="M55 467h226l-70 -467h121l69 467h281l-64 -467h121l66 467h227v121h-209l41 286h221v121h-204l63 435h-121l-63 -435h-279l66 435h-123l-66 -435h-245v-121h229l-43 -286h-244v-121zM420 588l45 286h278l-41 -286h-282z" />
<glyph unicode="$" d="M82 354q0 -80 36 -151.5t97 -124.5t141 -85t166 -32v-156h96v156q80 0 160 26.5t142.5 76t101.5 121t39 161.5q0 117 -32 191.5t-89 122t-139 76t-183 52.5v545q55 0 103.5 -17.5t85.5 -50t57.5 -78.5t20.5 -104h133q-4 86 -35 154t-84 114t-125 69.5t-156 23.5v125h-96 v-125q-84 0 -157.5 -26.5t-129 -75t-88 -117t-32.5 -154.5q0 -96 31.5 -161.5t87 -109.5t130 -72t158.5 -48v-608q-70 4 -127 32.5t-99 74.5t-64.5 106.5t-22.5 130.5h-127v-62zM246 1077q0 57 21.5 104.5t59.5 81t88 52t107 18.5v-526q-57 16 -107 34.5t-88 48.5 t-59.5 74.5t-21.5 112.5zM618 72v587q66 -14 122.5 -32.5t98.5 -50t66.5 -82t24.5 -125.5q0 -66 -24.5 -120t-67.5 -93t-100 -61.5t-120 -22.5z" />
<glyph unicode="%" horiz-adv-x="1820" d="M137 1090q0 -70 26.5 -131.5t73 -107.5t108 -72.5t130.5 -26.5q70 0 132.5 26.5t108.5 72.5t72.5 107.5t26.5 131.5t-26.5 132t-72.5 108t-108.5 73t-132.5 27t-131 -28t-107.5 -74t-73 -107t-26.5 -131zM254 1090q0 45 17.5 86t48 71.5t70.5 48t85 17.5t86 -18.5 t72 -49.5t48 -70.5t17 -84.5t-18 -85t-49 -71t-71 -48.5t-85 -17.5t-85 17.5t-70.5 48.5t-48 71t-17.5 85zM449 -29h106l813 1473h-106zM1010 338q0 -70 26.5 -131.5t72.5 -107.5t107.5 -72.5t131.5 -26.5t132 26.5t108 72.5t73 107.5t27 131.5t-27 132t-73 108.5t-108.5 73 t-131.5 26.5q-70 0 -131.5 -27.5t-107.5 -74t-72.5 -107.5t-26.5 -131zM1126 338q0 45 17.5 86t48.5 71.5t71 48t85 17.5t86 -18.5t71.5 -49t48 -70.5t17.5 -85t-18.5 -85t-49 -70.5t-70.5 -48t-85 -17.5t-85 17.5t-71 48t-48.5 70.5t-17.5 85z" />
<glyph unicode="&#x26;" horiz-adv-x="1366" d="M84 399q0 -98 36 -179t98.5 -138t146.5 -89t180 -32q147 0 257.5 49t207.5 164l143 -174h166l-240 283q55 86 77 185t26 200h-121q0 -76 -11.5 -149t-50.5 -138l-370 438q70 41 124 80t91 82t56.5 93t19.5 116q0 57 -23 109.5t-63.5 91.5t-98 61.5t-125.5 22.5 t-128 -18.5t-105 -55.5t-71.5 -91.5t-26.5 -123.5q0 -98 49 -179t108 -151q-72 -33 -135 -77t-111.5 -101t-77 -127t-28.5 -152zM223 389q0 59 22.5 115.5t60.5 105.5t90.5 89t113.5 69l420 -500q-74 -88 -165 -142t-210 -54q-72 0 -132.5 22.5t-104.5 63.5t-69.5 99 t-25.5 132zM403 1188q0 41 16.5 73.5t44.5 55t62.5 35t73.5 12.5q45 0 80 -15.5t59.5 -42t36.5 -59.5t12 -67q0 -78 -57 -140.5t-174 -128.5l-47 59q-27 34 -50.5 70.5t-40 75.5t-16.5 72z" />
<glyph unicode="'" horiz-adv-x="454" d="M174 1012h107v463h-107v-463z" />
<glyph unicode="(" horiz-adv-x="681" d="M113 565q0 -145 22.5 -269t67.5 -237.5t110.5 -223t149.5 -226.5h104q-141 211 -228 451.5t-87 496.5q0 260 84 501.5t231 454.5h-104q-84 -111 -148.5 -220t-109.5 -224t-68.5 -239t-23.5 -265z" />
<glyph unicode=")" horiz-adv-x="681" d="M115 -391h104q82 111 147.5 220.5t110.5 224t68.5 238.5t23.5 265q0 145 -23.5 269t-67.5 238t-109.5 223.5t-149.5 225.5h-104q141 -211 228 -452.5t87 -497.5q0 -260 -84 -500.5t-231 -453.5z" />
<glyph unicode="*" horiz-adv-x="796" d="M90 1237l229 -82l-157 -207l71 -55l160 217l152 -221l80 49l-154 217l234 76l-31 90l-234 -86v240h-86v-240l-227 88z" />
<glyph unicode="+" horiz-adv-x="1351" d="M164 451h450v-451h123v451h451v122h-451v451h-123v-451h-450v-122z" />
<glyph unicode="," horiz-adv-x="569" d="M209 0h70v-70q0 -61 -23 -89.5t-47 -45.5v-76q66 20 107.5 74.5t41.5 145.5v241h-149v-180z" />
<glyph unicode="-" horiz-adv-x="681" d="M82 451h518v122h-518v-122z" />
<glyph unicode="." horiz-adv-x="569" d="M209 0h149v180h-149v-180z" />
<glyph unicode="/" horiz-adv-x="569" d="M-6 -184h115l481 1697h-115z" />
<glyph unicode="0" d="M80 711q0 -150 20.5 -284t74.5 -235.5t149.5 -161t244.5 -59.5q150 0 244 59.5t148.5 160t75 231.5t20.5 274q0 84 -6.5 172t-24.5 171t-52 157t-88.5 129t-132 87t-184.5 32q-156 0 -252 -63.5t-148 -167t-70.5 -234.5t-18.5 -268zM211 696q0 119 15.5 233.5t54 205 t107.5 144.5t177 54q115 0 185.5 -53t109.5 -141t52.5 -200t13.5 -228q0 -109 -12.5 -221.5t-49.5 -202.5t-107.5 -147.5t-187.5 -57.5q-104 0 -172.5 44t-109.5 124t-58.5 193.5t-17.5 252.5z" />
<glyph unicode="1" d="M246 1073h372v-1073h132v1444h-105q-16 -92 -50 -146.5t-84 -83t-116.5 -39t-148.5 -16.5v-86z" />
<glyph unicode="2" d="M98 0h944v111h-804q2 51 18 93t43 76.5t59.5 64.5t67.5 56q53 41 121 78l137 77q70 40 136.5 85t118.5 102.5t84 131t32 169.5q0 82 -29 156t-85 127t-139 85t-192 32q-106 0 -193 -34t-148.5 -96.5t-94.5 -149.5t-33 -193h140q0 74 22.5 139.5t63.5 114.5t98 78.5 t129 29.5q68 0 125 -19.5t100 -58t67.5 -94t24.5 -125.5q0 -86 -30.5 -145.5t-84 -106.5t-122.5 -87l-148 -88q-78 -48 -158.5 -109.5t-156.5 -147.5q-70 -80 -91.5 -164t-21.5 -188z" />
<glyph unicode="3" d="M70 418q12 -127 47 -212t96 -137.5t153.5 -75t217.5 -22.5q111 0 197.5 35t146 95.5t90.5 139t31 169.5q0 49 -10.5 102t-39 101.5t-79 88t-127.5 64.5q104 45 154 127t50 194q0 90 -32.5 158t-88 112t-130 65.5t-160.5 21.5q-141 0 -232.5 -42t-143.5 -105.5 t-71.5 -136.5t-19.5 -136h131q0 68 22.5 124t63.5 98t97 64.5t126 22.5q61 0 117.5 -14t98.5 -45t66.5 -79t24.5 -116q0 -84 -30.5 -137t-85 -84t-130 -43t-167.5 -12v-107q94 0 179 -12t148.5 -45t100.5 -88t37 -143q0 -66 -27 -125.5t-75 -103.5t-113.5 -70.5 t-143.5 -26.5q-160 0 -259 85t-99 251h-131z" />
<glyph unicode="4" d="M74 356h659v-356h131v356h201v111h-201v963h-119l-671 -961v-113zM203 467l530 766v-766h-530z" />
<glyph unicode="5" d="M72 375q8 -113 50 -189.5t109.5 -125t156.5 -69t192 -20.5q88 0 171 32t146.5 93.5t101 150.5t37.5 204q0 111 -33.5 199.5t-95 150t-145.5 94.5t-182 33q-49 0 -89 -4t-77 -15.5t-73 -30t-79 -44.5l90 485h606v111h-716l-117 -748l108 -14q59 78 137.5 113.5t176.5 35.5 q82 0 148.5 -26.5t112.5 -75.5t71.5 -117t25.5 -147q0 -78 -23.5 -144.5t-68.5 -117t-109.5 -79t-144.5 -28.5q-141 0 -238.5 72.5t-117.5 220.5h-131z" />
<glyph unicode="6" d="M84 662q0 -190 39 -322.5t106.5 -214.5t159.5 -118t201 -36q221 0 342 125t121 344q0 217 -120 341t-339 124q-80 0 -137.5 -19.5t-100.5 -51t-76 -72.5l-65 -82q8 102 22.5 217t55.5 212t117.5 160.5t210.5 63.5q117 0 184 -66.5t90 -176.5h135q-20 174 -135 264 t-287 90q-160 0 -261 -74t-159.5 -188.5t-81 -252.5t-22.5 -267zM264 436q0 74 22.5 138.5t64.5 113.5t102.5 78t136.5 29q170 0 251 -91.5t81 -259.5q0 -66 -17.5 -130t-56.5 -116.5t-101.5 -84t-154.5 -31.5q-90 0 -151.5 32.5t-101.5 84t-57.5 114t-17.5 123.5z" />
<glyph unicode="7" d="M121 1298h762q-104 -127 -202.5 -287.5t-176.5 -332.5t-130 -347t-63 -331h144q6 106 39.5 258t103.5 327t178.5 360t263.5 362v123h-919v-132z" />
<glyph unicode="8" d="M90 397q0 -106 41 -186t105.5 -133t145.5 -80t159 -27q115 0 209 29t160.5 84t102.5 137t36 189q0 127 -69 221t-187 137q104 51 150 131t46 193q0 92 -37 158.5t-98 109.5t-140 63.5t-161 20.5q-84 0 -159 -26.5t-131 -75t-89 -113t-33 -137.5q0 -66 11.5 -110t36 -79 t62.5 -64.5t91 -62.5q-123 -47 -187.5 -148.5t-64.5 -230.5zM221 397q0 80 26.5 138.5t74 96.5t111 56.5t138.5 18.5q72 0 135.5 -18.5t110.5 -56.5t74 -94.5t27 -131.5q0 -72 -26 -131.5t-72 -102.5t-107.5 -66.5t-132.5 -23.5q-82 0 -148.5 24.5t-113 66.5t-72 99 t-25.5 125zM272 1073q0 63 22.5 112.5t62.5 82t93.5 49t114.5 16.5q150 0 221.5 -60.5t71.5 -170.5q0 -78 -21.5 -131t-58.5 -88t-88 -50.5t-110 -15.5t-114.5 15.5t-98.5 46t-69 78.5t-26 116z" />
<glyph unicode="9" d="M84 967q0 -104 31.5 -190.5t90 -148t140.5 -94t184 -32.5q129 0 226.5 57t163.5 168l4 -4q-4 -98 -19.5 -210t-57.5 -208t-119 -159.5t-206 -63.5q-121 0 -189.5 59.5t-90.5 175.5h-133q8 -88 42.5 -153.5t90 -108.5t129 -63.5t157.5 -20.5q115 0 211.5 47.5t167 141.5 t109.5 232t39 323q0 152 -24.5 285t-83 231t-156 155.5t-242.5 57.5q-119 0 -206 -36t-144.5 -100.5t-86 -151.5t-28.5 -189zM215 963q0 170 84 270t250 100q154 0 238.5 -101.5t84.5 -260.5q0 -74 -21.5 -138.5t-63.5 -113.5t-102 -78t-136 -29q-160 0 -247 92.5t-87 258.5 z" />
<glyph unicode=":" horiz-adv-x="569" d="M209 0h149v180h-149v-180zM209 827h149v181h-149v-181z" />
<glyph unicode=";" horiz-adv-x="569" d="M209 0h70v-70q0 -61 -23 -89.5t-47 -45.5v-76q66 20 107.5 74.5t41.5 145.5v241h-149v-180zM209 827h149v181h-149v-181z" />
<glyph unicode="&#x3c;" horiz-adv-x="1351" d="M164 469l1024 -481v131l-862 403l862 381v131l-1024 -456v-109z" />
<glyph unicode="=" horiz-adv-x="1351" d="M164 254h1024v123h-1024v-123zM164 651h1024v123h-1024v-123z" />
<glyph unicode="&#x3e;" horiz-adv-x="1351" d="M164 -12l1024 481v109l-1024 456v-131l862 -381l-862 -403v-131z" />
<glyph unicode="?" horiz-adv-x="1024" d="M96 1057h125q0 74 20.5 137t60.5 109.5t98.5 73t134.5 26.5t135 -20.5t100 -56.5t62.5 -84t21.5 -103q0 -57 -27.5 -106.5t-68.5 -95.5t-90.5 -91t-94.5 -92q-41 -43 -63.5 -86t-32.5 -90.5t-13 -98.5t-3 -106h119q0 31 2 65.5t6 68.5t13 62.5t22 46.5q49 68 111.5 123.5 t117.5 112.5t94 121.5t39 154.5q0 86 -30.5 158t-88 122t-140.5 77.5t-187 27.5q-100 0 -181.5 -32.5t-139.5 -93t-90 -144.5t-32 -186zM449 0h149v180h-149v-180z" />
<glyph unicode="@" horiz-adv-x="1638" d="M82 743q0 -162 59.5 -304t164 -248.5t246.5 -168t306 -61.5q100 0 198.5 25.5t185.5 75t159 120t121 160.5h-121q-47 -66 -107.5 -118t-131 -88t-147.5 -54.5t-157 -18.5q-139 0 -258 52.5t-207 142.5t-138 211t-50 260t48 263t134 217.5t206 147.5t261 54 q117 0 221.5 -37t184 -106.5t127 -170t47.5 -225.5q0 -82 -27 -170t-72 -160.5t-104.5 -119.5t-122.5 -47q-35 0 -47 15.5t-12 41.5q0 6 2 17.5t9 37t21.5 72.5l39.5 125l65 195l94 280h-137l-31 -94q-31 66 -94.5 100.5t-134.5 34.5q-115 0 -208 -58.5t-159.5 -149.5 t-103.5 -200.5t-37 -211.5q0 -63 19.5 -118.5t56 -97.5t90 -67t118.5 -25q66 0 131.5 28t112.5 75q18 -55 70.5 -79t105.5 -24q82 0 167 47.5t153.5 128t112.5 189t44 229.5q0 141 -55 260t-150.5 205t-224.5 134t-276 48q-156 0 -295 -60t-244.5 -164.5t-167 -245 t-61.5 -300.5zM530 590q0 70 26 154.5t72 159.5t111.5 125t147.5 50q63 0 102 -45t39 -104q0 -70 -26.5 -161t-72.5 -173t-107.5 -138.5t-131.5 -56.5q-78 0 -119 57.5t-41 131.5z" />
<glyph unicode="A" horiz-adv-x="1333" d="M10 0h144l174 463h671l170 -463h144l-565 1475h-158zM375 582l289 774l288 -774h-577z" />
<glyph unicode="B" horiz-adv-x="1357" d="M166 0h602q104 0 193.5 21.5t153 70.5t99 129t35.5 195q0 147 -74.5 245.5t-228.5 120.5v4q45 8 87 30t75 59.5t53.5 94t20.5 134.5q0 82 -27 150.5t-85 117.5t-150.5 76t-221.5 27h-532v-1475zM305 119v586h371q98 0 178 -11.5t137.5 -42t88 -87t30.5 -148.5 q0 -96 -27.5 -154.5t-83 -90.5t-140.5 -42t-200 -10h-354zM305 823v533h322q115 0 193.5 -13.5t127.5 -43t71.5 -77.5t22.5 -118q0 -68 -19 -120t-64.5 -88t-119 -54.5t-182.5 -18.5h-352z" />
<glyph unicode="C" horiz-adv-x="1488" d="M109 737q0 -158 34.5 -298t111.5 -246.5t197.5 -169t290.5 -62.5q147 0 257 42t187 113.5t124 167t71 201.5h-145q-20 -88 -60 -161.5t-98.5 -128t-136.5 -85t-172 -30.5q-152 0 -252 57.5t-159.5 150.5t-85 211.5t-25.5 241.5q0 131 29.5 249t92 208t159 143.5 t229.5 53.5q188 0 305 -80t160 -268h143q-18 115 -66.5 201.5t-123 146t-172 89t-209.5 29.5q-147 0 -272.5 -41.5t-217.5 -135t-144 -241t-52 -358.5z" />
<glyph unicode="D" horiz-adv-x="1478" d="M166 0h504q74 0 145.5 7t138 26.5t127 54.5t111.5 92q51 55 85 122t54.5 139.5t29.5 148.5t9 149q0 74 -11 161t-39 172t-75 162t-121 130q-51 37 -105 59.5t-111.5 33.5t-117 14.5t-120.5 3.5h-504v-1475zM305 119v1237h334q92 0 182 -10.5t156 -45.5q78 -41 127 -103 t77.5 -137t39 -158t10.5 -163q0 -76 -11.5 -157.5t-39 -156.5t-74.5 -138.5t-121 -100.5q-86 -45 -169 -56t-177 -11h-334z" />
<glyph unicode="E" horiz-adv-x="1251" d="M166 0h1001v119h-862v604h760v119h-760v514h842v119h-981v-1475z" />
<glyph unicode="F" horiz-adv-x="1153" d="M166 0h139v723h737v119h-737v514h811v119h-950v-1475z" />
<glyph unicode="G" horiz-adv-x="1589" d="M109 745q0 -197 48 -344t134 -244.5t204.5 -146.5t258.5 -49q109 0 194.5 20.5t151 58.5t116 92t89.5 120v-252h118v762h-630v-119h497q0 -141 -39 -246.5t-107.5 -176t-161.5 -105.5t-200 -35q-127 0 -226 49t-168 133t-104.5 194.5t-35.5 233.5q0 156 31.5 286t99 223 t172 144.5t250.5 51.5q82 0 157.5 -23.5t137 -67.5t105.5 -110t63 -147h143q-25 119 -80 205.5t-136 145t-182.5 87t-217.5 28.5q-174 0 -302.5 -59t-213.5 -162.5t-125.5 -244t-40.5 -302.5z" />
<glyph unicode="H" horiz-adv-x="1482" d="M166 0h139v723h873v-723h139v1475h-139v-633h-873v633h-139v-1475z" />
<glyph unicode="I" horiz-adv-x="471" d="M166 0h139v1475h-139v-1475z" />
<glyph unicode="J" horiz-adv-x="1024" d="M53 467q0 -98 14.5 -189.5t56.5 -162t117.5 -112.5t200.5 -42q215 0 315.5 113.5t100.5 328.5v1072h-139v-1067q0 -156 -58.5 -238t-201.5 -82q-96 0 -150.5 34t-80 87t-30.5 121.5t-5 136.5h-140z" />
<glyph unicode="K" horiz-adv-x="1357" d="M166 0h139v569l232 232l614 -801h170l-684 887l582 588h-183l-731 -744v744h-139v-1475z" />
<glyph unicode="L" d="M166 0h930v119h-791v1356h-139v-1475z" />
<glyph unicode="M" horiz-adv-x="1718" d="M166 0h139v1315h4l486 -1315h131l483 1315h4v-1315h139v1475h-211l-475 -1301h-4l-483 1301h-213v-1475z" />
<glyph unicode="N" horiz-adv-x="1484" d="M166 0h139v1286h4l848 -1286h162v1475h-139v-1289h-4l-852 1289h-158v-1475z" />
<glyph unicode="O" horiz-adv-x="1591" d="M109 735q0 -160 43 -300t129 -245.5t215 -167t299 -61.5t299 61.5t215 167t130 245.5t44 300q0 162 -44 304.5t-131 248t-217 165.5t-303 60q-166 0 -292.5 -61t-212.5 -166.5t-130 -248t-44 -302.5zM248 735q0 129 31.5 248t98 210t170 146.5t245.5 55.5q127 0 229 -45 t174 -131t109.5 -208t37.5 -276q0 -129 -31.5 -247.5t-98 -209t-170 -144.5t-246.5 -54q-145 0 -249 53t-170.5 143.5t-98 209t-31.5 249.5z" />
<glyph unicode="P" horiz-adv-x="1294" d="M166 0h139v651h348q102 0 198.5 18.5t170.5 64.5t119 126t45 203q0 82 -22.5 156.5t-79 132t-151.5 90.5t-239 33h-528v-1475zM305 770v586h291q115 0 200 -10.5t140 -42t83 -90t28 -154.5q0 -92 -31 -148.5t-88.5 -87t-137 -42t-178.5 -11.5h-307z" />
<glyph unicode="Q" horiz-adv-x="1591" d="M109 735q0 -160 43 -300t129 -245.5t215 -167t299 -61.5q111 0 201.5 26.5t166.5 73.5l217 -167l78 94l-196 151q111 109 166 262.5t55 333.5q0 188 -50.5 333.5t-141.5 244t-219 149.5t-284 51q-172 0 -300 -64.5t-211.5 -172t-125.5 -247.5t-42 -294zM248 735 q0 127 31.5 246t98 211t170 147.5t245.5 55.5q119 0 219 -41t174 -124t115.5 -206t41.5 -289q0 -154 -45 -290t-139 -226l-198 152l-74 -97l168 -129q-53 -31 -117 -48t-141 -17q-145 0 -249 53t-170.5 143.5t-98 209t-31.5 249.5z" />
<glyph unicode="R" horiz-adv-x="1392" d="M166 0h139v670h438q74 0 132.5 -11.5t98.5 -48.5t60.5 -108.5t20.5 -190.5q0 -43 3 -89t9 -89t14.5 -78t20.5 -55h153v14q-27 12 -44 93t-17 221q0 57 -5 119.5t-24.5 116.5t-57.5 97.5t-101 65.5q127 57 183 139t56 221q0 205 -129 296.5t-373 91.5h-577v-1475zM305 788 v568h443q70 0 134 -12.5t114.5 -43t80 -84t29.5 -135.5q0 -78 -28.5 -133t-78 -91t-116 -52.5t-144.5 -16.5h-434z" />
<glyph unicode="S" horiz-adv-x="1284" d="M88 440q0 -121 40 -210t111.5 -149.5t170 -90t213.5 -29.5q256 0 397 112.5t141 317.5q0 111 -39 182.5t-102.5 117.5t-144 71.5t-165.5 44t-166 38t-144.5 51.5t-102.5 82t-39 134q0 51 20.5 102.5t65.5 91.5t113.5 64.5t165.5 24.5q70 0 135 -18.5t116.5 -57.5 t81 -100.5t29.5 -145.5h133q0 90 -30.5 170t-92 140.5t-154.5 95t-218 34.5q-123 0 -217.5 -32.5t-157 -88t-94 -127t-31.5 -147.5q0 -109 39 -179.5t101.5 -115.5t143 -71.5t165.5 -46t166 -40t143.5 -54t101.5 -87t39 -139.5q0 -61 -21.5 -116.5t-66.5 -97.5t-117 -66.5 t-170 -24.5q-84 0 -157.5 19.5t-130 62.5t-92.5 111.5t-44 166.5h-135z" />
<glyph unicode="T" d="M33 1356h467v-1356h139v1356h467v119h-1073v-119z" />
<glyph unicode="U" horiz-adv-x="1474" d="M166 555q0 -283 141.5 -438.5t429.5 -155.5q287 0 429.5 152.5t142.5 441.5v920h-140v-879q0 -131 -22.5 -227.5t-73.5 -161t-134 -96t-202 -31.5q-227 0 -329.5 121t-102.5 395v879h-139v-920z" />
<glyph unicode="V" horiz-adv-x="1251" d="M37 1475l512 -1475h153l512 1475h-145l-442 -1311l-445 1311h-145z" />
<glyph unicode="W" horiz-adv-x="1820" d="M29 1475l381 -1475h153l342 1303h4l342 -1303h154l387 1475h-143l-322 -1278h-4l-336 1278h-156l-342 -1278h-4l-317 1278h-139z" />
<glyph unicode="X" horiz-adv-x="1251" d="M37 0h158l428 651l430 -651h159l-505 758l483 717h-162l-405 -621l-404 621h-162l488 -717z" />
<glyph unicode="Y" horiz-adv-x="1251" d="M25 1475l526 -842v-633h139v643l535 832h-162l-445 -711l-434 711h-159z" />
<glyph unicode="Z" horiz-adv-x="1251" d="M63 0h1123v119h-950l944 1239v117h-1037v-119h865l-945 -1239v-117z" />
<glyph unicode="[" horiz-adv-x="681" d="M186 -391h392v102h-261v1700h261v102h-392v-1904z" />
<glyph unicode="\" horiz-adv-x="569" d="M-94 1513l635 -1513h123l-635 1513h-123z" />
<glyph unicode="]" horiz-adv-x="681" d="M104 -289v-102h392v1904h-392v-102h261v-1700h-261z" />
<glyph unicode="^" horiz-adv-x="1351" d="M150 502h118l404 803l411 -803h117l-473 928h-106z" />
<glyph unicode="_" horiz-adv-x="1024" d="M0 -125v-119h1024v119h-1024z" />
<glyph unicode="`" horiz-adv-x="681" d="M92 1460l283 -284h104l-227 284h-160z" />
<glyph unicode="a" horiz-adv-x="1142" d="M98 276q0 -78 29 -134t78 -95t113.5 -57.5t134.5 -18.5q117 0 217 45t172 131h4q10 -98 45 -130.5t110 -32.5q16 0 45 6t52 14v96q-23 -8 -42.5 -13t-31.5 -5q-33 0 -44 24.5t-11 75.5v578q0 92 -30 155.5t-82 101.5t-122.5 55.5t-150.5 17.5q-86 0 -163 -19.5 t-135.5 -61.5t-95 -108.5t-43.5 -161.5h125q8 70 34 116t66 73.5t93 39t117 11.5q143 0 203.5 -60.5t60.5 -154.5q0 -72 -32 -99.5t-109 -37.5l-236 -31q-371 -50 -371 -320zM229 272q0 109 79 162t220 64q115 8 196 22.5t122 36.5v-166q0 -80 -33 -138t-87 -96t-124 -56.5 t-143 -18.5q-43 0 -85 11t-74 35t-51.5 59.5t-19.5 84.5z" />
<glyph unicode="b" horiz-adv-x="1220" d="M147 0h123v186h4q27 -53 69 -93t92 -66.5t103.5 -41t104.5 -14.5q129 0 219 43t148.5 118t85 177.5t26.5 218.5q0 111 -28.5 213.5t-87 179t-147.5 123t-210 46.5q-113 0 -216 -50.5t-163 -148.5v584h-123v-1475zM270 516q0 225 99.5 344t259.5 119q94 0 162.5 -37 t113.5 -100.5t65.5 -148.5t20.5 -181q0 -90 -27.5 -169t-75.5 -137.5t-114.5 -91t-144.5 -32.5q-86 0 -153.5 36t-113 95t-69 138t-23.5 165z" />
<glyph unicode="c" horiz-adv-x="1140" d="M98 528q0 -117 29 -219t88 -177t151.5 -118t219.5 -43q100 0 178 29t134 81t92 125t52 161h-131q-23 -133 -105.5 -209t-219.5 -76q-96 0 -164 38t-111 101.5t-62.5 143t-19.5 163.5q0 82 20.5 163t63.5 145.5t111 103.5t162 39q123 0 202.5 -66.5t112.5 -185.5h125 q-29 186 -142.5 274.5t-297.5 88.5q-119 0 -210 -46.5t-152.5 -124t-93.5 -179t-32 -212.5z" />
<glyph unicode="d" horiz-adv-x="1220" d="M98 528q0 -117 27 -219t85 -177t148.5 -118t219.5 -43q51 0 104 14.5t103.5 41t92.5 66.5t68 93h4v-186h123v1475h-123v-584q-59 98 -162.5 148.5t-216.5 50.5q-121 0 -210 -46.5t-147 -123t-87 -179t-29 -213.5zM229 516q0 225 99.5 344t259.5 119q94 0 162.5 -37 t113.5 -100.5t65.5 -148.5t20.5 -181q0 -90 -27.5 -169t-75.5 -137.5t-114.5 -91t-144.5 -32.5q-86 0 -153.5 36t-113 95t-69 138t-23.5 165z" />
<glyph unicode="e" horiz-adv-x="1150" d="M98 526q0 -117 29 -218t88 -176t151.5 -118t219.5 -43q100 0 176 27t131 75t92 112.5t59 140.5h-137q-29 -117 -114.5 -180.5t-206.5 -63.5q-88 0 -154.5 34t-112 91t-68 133t-22.5 162h824q0 289 -124 438.5t-343 149.5q-115 0 -205 -44.5t-152.5 -121t-96.5 -179 t-34 -219.5zM229 604q8 76 35 143.5t71 119t106.5 82t144.5 30.5t145.5 -29.5t105.5 -80t63.5 -119t21.5 -146.5h-693z" />
<glyph unicode="f" horiz-adv-x="569" d="M41 958h158v-958h123v958h204v103h-204v131q0 37 3 72.5t15 64.5t39 46.5t74 17.5q33 0 73 -11v105q-25 8 -49 10t-53 2q-123 0 -174 -71.5t-51 -198.5v-168h-158v-103z" />
<glyph unicode="g" horiz-adv-x="1220" d="M98 532q0 -111 29 -213t87 -179t147.5 -123t209.5 -46q113 0 216.5 50.5t162.5 148.5q0 -90 -11 -179t-50 -159t-114 -113t-200 -43q-55 0 -106 8.5t-93 30t-73 59.5t-45 97h-131q2 -47 29.5 -101.5t81 -99.5t137.5 -74.5t200 -29.5q152 0 248.5 44t151.5 117.5t76.5 171 t21.5 203.5v959h-123v-187h-4q-27 51 -68.5 92.5t-92 68t-103.5 41t-104 14.5q-129 0 -219.5 -43t-148.5 -118t-85 -177.5t-27 -219.5zM229 516q0 225 99.5 344t259.5 119q94 0 162.5 -37t113.5 -100.5t65.5 -148.5t20.5 -181q0 -90 -27.5 -169t-75.5 -137.5t-114.5 -91 t-144.5 -32.5q-86 0 -153.5 36t-113 95t-69 138t-23.5 165z" />
<glyph unicode="h" horiz-adv-x="1136" d="M147 0h123v582q0 76 18.5 147.5t56.5 126.5t99.5 89t147.5 34q147 0 210.5 -71.5t63.5 -215.5v-692h123v694q0 203 -101.5 299.5t-275.5 96.5q-111 0 -189.5 -49.5t-152.5 -127.5v562h-123v-1475z" />
<glyph unicode="i" horiz-adv-x="417" d="M147 0h123v1061h-123v-1061zM147 1292h123v183h-123v-183z" />
<glyph unicode="j" horiz-adv-x="450" d="M10 -301v-109q35 -8 80 -8q74 0 116 17.5t63.5 53.5t27.5 87t6 119v1202h-123v-1219q0 -72 -23.5 -109.5t-95.5 -37.5q-4 0 -22.5 1t-28.5 3zM180 1292h123v183h-123v-183z" />
<glyph unicode="k" horiz-adv-x="1032" d="M147 0h123v401l201 191l397 -592h138l-445 678l397 383h-167l-521 -504v918h-123v-1475z" />
<glyph unicode="l" horiz-adv-x="417" d="M147 0h123v1475h-123v-1475z" />
<glyph unicode="m" horiz-adv-x="1736" d="M147 0h123v571q0 80 17.5 154t55.5 130t96.5 90t140.5 34q131 0 179 -65.5t48 -180.5v-733h123v571q0 92 20.5 167t59.5 128.5t96 83t133 29.5q131 0 179 -65.5t48 -180.5v-733h123v670q0 80 -11 155.5t-46 134t-99.5 94.5t-172.5 36q-115 0 -204 -50.5t-143 -154.5 q-16 43 -39.5 79.5t-59.5 64.5t-87 44.5t-125 16.5q-104 0 -192 -48.5t-136 -140.5h-4v160h-123v-1061z" />
<glyph unicode="n" horiz-adv-x="1136" d="M147 0h123v582q0 76 18.5 147.5t56.5 126.5t99.5 89t147.5 34q147 0 210.5 -71.5t63.5 -215.5v-692h123v694q0 203 -101.5 299.5t-275.5 96.5q-111 0 -189.5 -49.5t-152.5 -127.5v148h-123v-1061z" />
<glyph unicode="o" horiz-adv-x="1179" d="M98 530q0 -139 39 -243.5t105.5 -175t155.5 -105.5t192 -35q111 0 202 40t155.5 114t99 176t34.5 229q0 117 -29.5 219.5t-91 177t-153.5 119t-217 44.5q-123 0 -215 -44.5t-153.5 -120t-92.5 -177t-31 -218.5zM229 530q0 86 20.5 167t63.5 143.5t112 100.5t165 38 q98 0 166.5 -35t111.5 -95.5t62.5 -142t19.5 -176.5q0 -86 -20.5 -165.5t-63.5 -143t-111.5 -101.5t-164.5 -38q-88 0 -155.5 32.5t-113 92t-69 142.5t-23.5 181z" />
<glyph unicode="p" horiz-adv-x="1220" d="M147 -418h123v588q59 -98 163 -148.5t216 -50.5q121 0 210 46t147.5 123t87 179.5t28.5 212.5q0 117 -26.5 219.5t-85 177.5t-148.5 118t-219 43q-51 0 -104.5 -14.5t-103.5 -41t-92 -67.5t-69 -93h-4v187h-123v-1479zM270 516q0 225 99.5 344t259.5 119q94 0 162.5 -37 t113.5 -100.5t65.5 -148.5t20.5 -181q0 -90 -27.5 -169t-75.5 -137.5t-114.5 -91t-144.5 -32.5q-86 0 -153.5 36t-113 95t-69 138t-23.5 165z" />
<glyph unicode="q" horiz-adv-x="1220" d="M98 532q0 -111 29 -213t87 -179t147.5 -123t209.5 -46q113 0 216.5 50.5t162.5 148.5v-588h123v1479h-123v-187h-4q-27 51 -68.5 92.5t-92 68t-103.5 41t-104 14.5q-129 0 -219.5 -43t-148.5 -118t-85 -177.5t-27 -219.5zM229 516q0 225 99.5 344t259.5 119 q94 0 162.5 -37t113.5 -100.5t65.5 -148.5t20.5 -181q0 -90 -27.5 -169t-75.5 -137.5t-114.5 -91t-144.5 -32.5q-86 0 -153.5 36t-113 95t-69 138t-23.5 165z" />
<glyph unicode="r" horiz-adv-x="675" d="M147 0h123v520q0 88 15.5 168t55.5 139.5t107.5 94t172.5 34.5v134q-133 0 -214 -50.5t-133 -177.5h-4v199h-123v-1061z" />
<glyph unicode="s" horiz-adv-x="1007" d="M74 332q4 -76 32.5 -141.5t80 -114.5t124 -77t166.5 -28t173 19.5t136.5 58.5t90 97.5t32.5 134.5q0 102 -50 159.5t-126 91t-164 52t-163.5 42t-126 61.5t-50.5 110q0 82 61.5 132t178.5 50t193.5 -50t93.5 -173h125q-23 180 -130.5 257t-279.5 77q-178 0 -275.5 -85 t-97.5 -219q0 -104 50.5 -161.5t126 -88t163.5 -46t164 -37t126 -59.5t50 -115q0 -39 -16.5 -74t-48 -62.5t-80.5 -44t-117 -16.5q-139 0 -214 56.5t-103 193.5h-125z" />
<glyph unicode="t" horiz-adv-x="569" d="M41 958h149v-776q0 -119 48.5 -165t140.5 -46q45 0 82 10.5t59 14.5v100q-25 -6 -50.5 -10t-49.5 -4q-39 0 -60.5 8t-32 26.5t-12.5 47.5t-2 67v727h199v103h-199v295h-123v-295h-149v-103z" />
<glyph unicode="u" horiz-adv-x="1136" d="M147 362q0 -84 19.5 -154.5t63.5 -123.5t116 -83t178 -30q121 0 201 51.5t139 124.5h2v-147h123v1061h-123v-578q0 -88 -22.5 -161.5t-63.5 -127t-101.5 -83t-135.5 -29.5q-145 0 -209 72.5t-64 210.5v696h-123v-699z" />
<glyph unicode="v" horiz-adv-x="1024" d="M35 1061l405 -1061h138l411 1061h-133l-344 -909l-344 909h-133z" />
<glyph unicode="w" horiz-adv-x="1478" d="M31 1061l323 -1061h148l235 891h4l232 -891h131l344 1061h-125l-279 -897l-233 897h-137l-246 -905l-274 905h-123z" />
<glyph unicode="x" horiz-adv-x="1024" d="M37 0h149l330 459l322 -459h147l-397 549l383 512h-156l-301 -422l-293 422h-151l374 -512z" />
<glyph unicode="y" horiz-adv-x="1003" d="M37 1061l412 -1069q-31 -88 -55.5 -145.5t-48 -90t-48.5 -45t-55 -12.5q-27 0 -53 4l-50 8v-114q25 -6 54.5 -10.5t62.5 -4.5q63 0 109.5 30t84 86t71.5 136t71 180l395 1047h-133l-340 -911l-340 911h-137z" />
<glyph unicode="z" horiz-adv-x="1024" d="M68 0h888v102h-731l705 850v109h-815v-103h657l-704 -849v-109z" />
<glyph unicode="{" horiz-adv-x="681" d="M104 567q57 -16 90 -37.5t50.5 -50t22.5 -67.5t5 -90v-373q0 -92 13.5 -155.5t48.5 -102.5t94 -56.5t152 -17.5v2q-102 27 -139.5 92.5t-37.5 157.5v393q0 59 -6 108.5t-24.5 88.5t-51 66.5t-85.5 41.5v4q100 23 133.5 92.5t33.5 184.5v422q0 104 41 161.5t140 86.5v4 q-92 0 -151.5 -16.5t-95.5 -52.5t-50.5 -92t-14.5 -134v-418q0 -94 -31.5 -155.5t-136.5 -82.5v-4z" />
<glyph unicode="|" horiz-adv-x="454" d="M166 0h123v1513h-123v-1513z" />
<glyph unicode="}" horiz-adv-x="681" d="M104 1518q98 -29 139.5 -86.5t41.5 -161.5v-422q0 -57 7 -103.5t25.5 -81t51 -57t84.5 -35.5v-4q-53 -14 -86 -41.5t-51.5 -66.5t-24.5 -88t-6 -109v-393q0 -92 -37 -157.5t-139 -92.5v-2q92 0 151 17.5t94 56.5t48.5 102.5t13.5 155.5v373q0 51 5 90t22.5 67.5t50 50 t90.5 37.5v4q-104 20 -136 82t-32 156v418q0 78 -14.5 134t-50.5 92t-95 52.5t-152 16.5v-4z" />
<glyph unicode="~" horiz-adv-x="1351" d="M164 453l67 -97q51 88 102.5 140.5t119.5 52.5q35 0 91 -24l119 -51q62 -28 125.5 -50.5t112.5 -22.5q51 0 94 19.5t79 51.5t63.5 72t50.5 81l-82 69q-14 -29 -34.5 -59.5t-46.5 -57t-56.5 -44t-65.5 -17.5q-43 0 -97 22.5t-113.5 50t-121 51.5t-118.5 24 q-55 0 -98.5 -20.5t-78 -52.5t-62.5 -69z" />
<glyph unicode="&#xa9;" horiz-adv-x="1638" d="M43 739q0 -162 61.5 -303t167 -246.5t246.5 -167t303 -61.5q160 0 301.5 61.5t247 167t165.5 247t60 302.5q0 160 -60 301.5t-165.5 246t-247 165.5t-301.5 61q-162 0 -303 -61t-246.5 -165.5t-167 -246t-61.5 -301.5zM166 739q0 141 49 264t136 213.5t208 142.5t262 52 t261 -52t206 -142.5t135.5 -213t49.5 -264.5q0 -143 -49.5 -266t-135.5 -214t-205.5 -143.5t-261.5 -52.5q-141 0 -262 52.5t-208 143.5t-136 214t-49 266zM426 745q0 -96 30.5 -178t87 -141t135.5 -94t177 -35q68 0 129.5 20.5t110.5 59.5t80.5 95t37.5 126h-110 q-6 -49 -28.5 -88t-56.5 -66.5t-76 -42t-87 -14.5q-76 0 -133 29.5t-97 80t-60.5 116t-20.5 135.5q0 72 19.5 136t57 112t95 76t135.5 28q92 0 163.5 -55.5t88.5 -147.5h110q-23 141 -123 217t-241 76q-98 0 -177 -34t-134.5 -93t-84 -140.5t-28.5 -177.5z" />
<glyph unicode="&#xab;" d="M231 467l299 -227v127l-213 163l213 168v129l-299 -231v-129zM608 467l299 -227v127l-213 163l213 168v129l-299 -231v-129z" />
<glyph unicode="&#xad;" horiz-adv-x="681" d="M82 451h518v122h-518v-122z" />
<glyph unicode="&#xae;" horiz-adv-x="1638" d="M43 739q0 -162 61.5 -303t167 -246.5t246.5 -167t303 -61.5q160 0 301.5 61.5t247 167t165.5 247t60 302.5q0 160 -60 301.5t-165.5 246t-247 165.5t-301.5 61q-162 0 -303 -61t-246.5 -165.5t-167 -246t-61.5 -301.5zM166 739q0 141 49 264t136 213.5t208 142.5t262 52 t261 -52t206 -142.5t135.5 -213t49.5 -264.5q0 -143 -49.5 -266t-135.5 -214t-205.5 -143.5t-261.5 -52.5q-141 0 -262 52.5t-208 143.5t-136 214t-49 266zM532 305h107v400h195l247 -400h127l-262 400q119 0 196 55t77 182q0 106 -68 167.5t-240 61.5h-379v-866zM639 788 v308h248q39 0 78 -5.5t69.5 -20.5t50 -45t19.5 -81q0 -49 -18.5 -79.5t-49 -47t-71.5 -23t-86 -6.5h-240z" />
<glyph unicode="&#xbb;" d="M231 240l299 231v129l-299 227v-127l213 -163l-213 -168v-129zM608 240l299 231v129l-299 227v-127l213 -163l-213 -168v-129z" />
<glyph unicode="&#x2c6;" horiz-adv-x="1351" d="M150 502h118l404 803l411 -803h117l-473 928h-106z" />
<glyph unicode="&#x400;" horiz-adv-x="1251" d="M321 1921l283 -284h104l-227 284h-160zM166 0h1001v119h-862v604h760v119h-760v514h842v119h-981v-1475z" />
<glyph unicode="&#x401;" horiz-adv-x="1251" d="M166 0h1001v119h-862v604h760v119h-760v514h842v119h-981v-1475zM418 1610h123v182h-123v-182zM743 1610h123v182h-123v-182z" />
<glyph unicode="&#x402;" horiz-adv-x="1593" d="M33 1356h467v-1356h139v707q14 2 42 5t61.5 6t70.5 4t74 1q236 0 344 -71.5t108 -248.5q0 -84 -25.5 -139t-80.5 -87t-142 -45t-212 -13h-62v-119h170q106 0 197.5 21.5t156 69.5t101.5 126t37 191q0 86 -26 164.5t-88 139t-166.5 95.5t-264.5 35q-25 0 -67 -1t-87 -3 t-84 -4.5t-57 -4.5v527h467v119h-1073v-119z" />
<glyph unicode="&#x403;" horiz-adv-x="1153" d="M166 0h139v1356h811v119h-950v-1475zM547 1614h123l336 340h-189z" />
<glyph unicode="&#x404;" horiz-adv-x="1478" d="M98 737q0 -158 35 -298t112 -246.5t197.5 -169t290.5 -62.5q147 0 257 42t186.5 113.5t124 167t71.5 201.5h-145q-20 -88 -60.5 -161.5t-98.5 -128t-136 -85t-172 -30.5q-145 0 -244.5 53t-161 142.5t-89 205t-27.5 242.5h630v119h-630q0 109 33.5 208t98 176t160 123 t218.5 46q188 0 304.5 -80t159.5 -268h144q-18 115 -66.5 201.5t-123 146t-172 89t-210.5 29.5q-147 0 -272 -41.5t-217 -135t-144.5 -241t-52.5 -358.5z" />
<glyph unicode="&#x405;" horiz-adv-x="1284" d="M88 440q0 -121 40 -210t111.5 -149.5t170 -90t213.5 -29.5q256 0 397 112.5t141 317.5q0 111 -39 182.5t-102.5 117.5t-144 71.5t-165.5 44t-166 38t-144.5 51.5t-102.5 82t-39 134q0 51 20.5 102.5t65.5 91.5t113.5 64.5t165.5 24.5q70 0 135 -18.5t116.5 -57.5 t81 -100.5t29.5 -145.5h133q0 90 -30.5 170t-92 140.5t-154.5 95t-218 34.5q-123 0 -217.5 -32.5t-157 -88t-94 -127t-31.5 -147.5q0 -109 39 -179.5t101.5 -115.5t143 -71.5t165.5 -46t166 -40t143.5 -54t101.5 -87t39 -139.5q0 -61 -21.5 -116.5t-66.5 -97.5t-117 -66.5 t-170 -24.5q-84 0 -157.5 19.5t-130 62.5t-92.5 111.5t-44 166.5h-135z" />
<glyph unicode="&#x406;" horiz-adv-x="471" d="M166 0h139v1475h-139v-1475z" />
<glyph unicode="&#x407;" horiz-adv-x="471" d="M0 1610h123v182h-123v-182zM166 0h139v1475h-139v-1475zM348 1610h123v182h-123v-182z" />
<glyph unicode="&#x408;" horiz-adv-x="1024" d="M53 467q0 -98 14.5 -189.5t56.5 -162t117.5 -112.5t200.5 -42q215 0 315.5 113.5t100.5 328.5v1072h-139v-1067q0 -156 -58.5 -238t-201.5 -82q-96 0 -150.5 34t-80 87t-30.5 121.5t-5 136.5h-140z" />
<glyph unicode="&#x409;" horiz-adv-x="2107" d="M33 -12q35 -10 57.5 -13.5t50.5 -3.5q70 0 121 41t85 131t50.5 231.5t16.5 342.5v639h565v-1356h528q143 0 238.5 33t152 90t79 131t22.5 158q0 123 -45 205.5t-119 133t-169 71t-198 20.5h-350v633h-844v-654q0 -385 -36.5 -558t-108.5 -173q-20 0 -47 3t-49 7v-112z M1118 119v604h309q92 0 172 -13.5t137.5 -48t90.5 -94t33 -151.5q0 -96 -28 -154.5t-83 -90.5t-140 -42t-200 -10h-291z" />
<glyph unicode="&#x40a;" horiz-adv-x="2131" d="M166 0h139v723h699v-723h528q143 0 238.5 33t151.5 90t78.5 131t22.5 158q0 123 -45 205.5t-118.5 133t-169 71t-197.5 20.5h-350v633h-139v-633h-699v633h-139v-1475zM1143 119v604h309q92 0 172 -13.5t137.5 -48t90 -94t32.5 -151.5q0 -96 -27.5 -154.5t-83 -90.5 t-140.5 -42t-199 -10h-291z" />
<glyph unicode="&#x40b;" horiz-adv-x="1593" d="M33 1356h467v-1356h139v707q14 2 42 5t61.5 6t70.5 4t74 1q236 0 344 -71.5t108 -248.5v-403h140v408q0 86 -26 164.5t-88 139t-166.5 95.5t-264.5 35q-25 0 -67 -1t-87 -3t-84 -4.5t-57 -4.5v527h467v119h-1073v-119z" />
<glyph unicode="&#x40c;" horiz-adv-x="1357" d="M166 0h139v569l232 232l614 -801h170l-684 887l582 588h-183l-731 -744v744h-139v-1475zM508 1610h123l336 340h-189z" />
<glyph unicode="&#x40d;" horiz-adv-x="1484" d="M407 1921l283 -284h104l-227 284h-160zM166 0h162l848 1286h4v-1286h139v1475h-158l-852 -1289h-4v1289h-139v-1475z" />
<glyph unicode="&#x40e;" horiz-adv-x="1187" d="M8 1475l508 -1231l-29 -60q-27 -55 -60.5 -79.5t-100.5 -24.5q-23 0 -44.5 2t-33.5 6v-117q37 -10 86 -10q57 0 101 11.5t79 39t64.5 70.5t58.5 108l559 1285h-154l-450 -1067l-438 1067h-146zM354 1903q10 -123 86 -190.5t199 -67.5q127 0 209 64.5t96 193.5h-76 q-23 -86 -78 -126t-141 -40t-142 40t-73 126h-80z" />
<glyph unicode="&#x40f;" horiz-adv-x="1482" d="M166 0h506v-338h139v338h506v1475h-139v-1356h-873v1356h-139v-1475z" />
<glyph unicode="&#x410;" horiz-adv-x="1333" d="M10 0h144l174 463h671l170 -463h144l-565 1475h-158zM375 582l289 774l288 -774h-577z" />
<glyph unicode="&#x411;" horiz-adv-x="1294" d="M166 0h528q143 0 238.5 33t152 90t79 131t22.5 158q0 123 -45 205.5t-119 133t-169 71t-198 20.5h-350v514h774v119h-913v-1475zM305 119v604h309q92 0 172 -13.5t137.5 -48t90.5 -94t33 -151.5q0 -96 -28 -154.5t-83 -90.5t-140 -42t-200 -10h-291z" />
<glyph unicode="&#x412;" horiz-adv-x="1357" d="M166 0h602q104 0 193.5 21.5t153 70.5t99 129t35.5 195q0 147 -74.5 245.5t-228.5 120.5v4q45 8 87 30t75 59.5t53.5 94t20.5 134.5q0 82 -27 150.5t-85 117.5t-150.5 76t-221.5 27h-532v-1475zM305 119v586h371q98 0 178 -11.5t137.5 -42t88 -87t30.5 -148.5 q0 -96 -27.5 -154.5t-83 -90.5t-140.5 -42t-200 -10h-354zM305 823v533h322q115 0 193.5 -13.5t127.5 -43t71.5 -77.5t22.5 -118q0 -68 -19 -120t-64.5 -88t-119 -54.5t-182.5 -18.5h-352z" />
<glyph unicode="&#x413;" horiz-adv-x="1153" d="M166 0h139v1356h811v119h-950v-1475z" />
<glyph unicode="&#x414;" horiz-adv-x="1421" d="M53 119v-457h140v338h1036v-338h139v457h-113v1356h-923v-533q0 -166 -11.5 -282.5t-33 -208t-53 -168t-72.5 -164.5h-109zM307 119q39 78 70 158.5t51.5 172t31.5 198t11 237.5v471h645v-1237h-809z" />
<glyph unicode="&#x415;" horiz-adv-x="1251" d="M166 0h1001v119h-862v604h760v119h-760v514h842v119h-981v-1475z" />
<glyph unicode="&#x416;" horiz-adv-x="2045" d="M20 0h160l576 764l198 -219v-545h140v545l198 219l576 -764h160l-644 858l562 617h-164l-688 -762v762h-140v-762l-688 762h-164l562 -617z" />
<glyph unicode="&#x417;" horiz-adv-x="1304" d="M92 440q0 -121 42 -211t116 -149.5t175 -89t220 -29.5q281 0 416 119t135 321q0 61 -18.5 120t-54.5 110t-89 90t-123 57q125 53 177.5 145.5t52.5 209.5q0 94 -39 165.5t-107.5 118.5t-164 70.5t-205.5 23.5q-121 0 -213.5 -31.5t-155.5 -89t-95 -139.5t-32 -180h137 q0 86 29 147.5t78 100.5t113.5 56.5t138.5 17.5q76 0 144.5 -15.5t119.5 -48.5t81.5 -84t30.5 -121q0 -154 -91 -218t-253 -64h-90v-119h121q86 0 154.5 -25.5t117 -69.5t73 -106.5t24.5 -136.5q0 -61 -20.5 -116.5t-68.5 -97.5t-126 -66.5t-191 -24.5q-190 0 -298.5 81 t-125.5 279h-135z" />
<glyph unicode="&#x418;" horiz-adv-x="1484" d="M166 0h162l848 1286h4v-1286h139v1475h-158l-852 -1289h-4v1289h-139v-1475z" />
<glyph unicode="&#x419;" horiz-adv-x="1484" d="M166 0h162l848 1286h4v-1286h139v1475h-158l-852 -1289h-4v1289h-139v-1475zM461 1903q10 -123 86 -190.5t198 -67.5q127 0 209 64.5t97 193.5h-76q-23 -86 -78 -126t-141 -40t-142.5 40t-72.5 126h-80z" />
<glyph unicode="&#x41a;" horiz-adv-x="1357" d="M166 0h139v569l232 232l614 -801h170l-684 887l582 588h-183l-731 -744v744h-139v-1475z" />
<glyph unicode="&#x41b;" horiz-adv-x="1421" d="M33 -12q35 -10 57.5 -13.5t50.5 -3.5q70 0 121 41t85 131t50.5 231.5t16.5 342.5v639h702v-1356h139v1475h-981v-654q0 -385 -36.5 -558t-108.5 -173q-20 0 -47 3t-49 7v-112z" />
<glyph unicode="&#x41c;" horiz-adv-x="1718" d="M166 0h139v1315h4l486 -1315h131l483 1315h4v-1315h139v1475h-211l-475 -1301h-4l-483 1301h-213v-1475z" />
<glyph unicode="&#x41d;" horiz-adv-x="1482" d="M166 0h139v723h873v-723h139v1475h-139v-633h-873v633h-139v-1475z" />
<glyph unicode="&#x41e;" horiz-adv-x="1591" d="M109 735q0 -160 43 -300t129 -245.5t215 -167t299 -61.5t299 61.5t215 167t130 245.5t44 300q0 162 -44 304.5t-131 248t-217 165.5t-303 60q-166 0 -292.5 -61t-212.5 -166.5t-130 -248t-44 -302.5zM248 735q0 129 31.5 248t98 210t170 146.5t245.5 55.5q127 0 229 -45 t174 -131t109.5 -208t37.5 -276q0 -129 -31.5 -247.5t-98 -209t-170 -144.5t-246.5 -54q-145 0 -249 53t-170.5 143.5t-98 209t-31.5 249.5z" />
<glyph unicode="&#x41f;" horiz-adv-x="1482" d="M166 0h139v1356h873v-1356h139v1475h-1151v-1475z" />
<glyph unicode="&#x420;" horiz-adv-x="1294" d="M166 0h139v651h348q102 0 198.5 18.5t170.5 64.5t119 126t45 203q0 82 -22.5 156.5t-79 132t-151.5 90.5t-239 33h-528v-1475zM305 770v586h291q115 0 200 -10.5t140 -42t83 -90t28 -154.5q0 -92 -31 -148.5t-88.5 -87t-137 -42t-178.5 -11.5h-307z" />
<glyph unicode="&#x421;" horiz-adv-x="1488" d="M109 737q0 -158 34.5 -298t111.5 -246.5t197.5 -169t290.5 -62.5q147 0 257 42t187 113.5t124 167t71 201.5h-145q-20 -88 -60 -161.5t-98.5 -128t-136.5 -85t-172 -30.5q-152 0 -252 57.5t-159.5 150.5t-85 211.5t-25.5 241.5q0 131 29.5 249t92 208t159 143.5 t229.5 53.5q188 0 305 -80t160 -268h143q-18 115 -66.5 201.5t-123 146t-172 89t-209.5 29.5q-147 0 -272.5 -41.5t-217.5 -135t-144 -241t-52 -358.5z" />
<glyph unicode="&#x422;" d="M33 1356h467v-1356h139v1356h467v119h-1073v-119z" />
<glyph unicode="&#x423;" horiz-adv-x="1187" d="M8 1475l508 -1231l-29 -60q-27 -55 -60.5 -79.5t-100.5 -24.5q-23 0 -44.5 2t-33.5 6v-117q37 -10 86 -10q57 0 101 11.5t79 39t64.5 70.5t58.5 108l559 1285h-154l-450 -1067l-438 1067h-146z" />
<glyph unicode="&#x424;" horiz-adv-x="1720" d="M109 743q0 -129 42 -238.5t118.5 -189t183 -125t237.5 -45.5h101v-145h139v145h100q131 0 237.5 45.5t183.5 125t119 189t42 238.5q0 125 -42 236t-119 192.5t-183.5 129t-237.5 47.5h-100v127h-139v-127h-101q-131 0 -237.5 -47.5t-183 -129t-118.5 -192.5t-42 -236z M248 748q0 102 30.5 190t88 152.5t140.5 101.5t187 37h97v-965h-97q-104 0 -187 37t-140.5 102.5t-88 154t-30.5 190.5zM930 264v965h96q104 0 187 -37t140.5 -101.5t88.5 -152.5t31 -190t-31 -190.5t-88.5 -154t-140.5 -102.5t-187 -37h-96z" />
<glyph unicode="&#x425;" horiz-adv-x="1251" d="M37 0h158l428 651l430 -651h159l-505 758l483 717h-162l-405 -621l-404 621h-162l488 -717z" />
<glyph unicode="&#x426;" horiz-adv-x="1482" d="M166 0h1124v-338h140v457h-113v1356h-139v-1356h-873v1356h-139v-1475z" />
<glyph unicode="&#x427;" horiz-adv-x="1382" d="M154 1104q0 -117 30.5 -200t89 -135t141.5 -75.5t187 -23.5q55 0 116.5 1t125 3t124 6t109.5 12v-692h140v1475h-140v-660q-53 -6 -93 -11t-79 -8t-81 -5.5t-95 -2.5q-98 0 -179 11.5t-137.5 42t-88 87t-31.5 148.5v398h-139v-371z" />
<glyph unicode="&#x428;" horiz-adv-x="1978" d="M166 0h1646v1475h-139v-1356h-614v1356h-139v-1356h-615v1356h-139v-1475z" />
<glyph unicode="&#x429;" horiz-adv-x="1978" d="M166 0h1620v-338h139v457h-113v1356h-139v-1356h-614v1356h-139v-1356h-615v1356h-139v-1475z" />
<glyph unicode="&#x42a;" horiz-adv-x="1419" d="M-14 1356h305v-1356h528q143 0 238.5 33t152 90t79 131t22.5 158q0 123 -45 205.5t-119 133t-169 71t-198 20.5h-350v633h-444v-119zM430 119v604h309q92 0 172 -13.5t137.5 -48t90 -94t32.5 -151.5q0 -96 -27.5 -154.5t-82.5 -90.5t-140 -42t-200 -10h-291z" />
<glyph unicode="&#x42b;" horiz-adv-x="1759" d="M166 0h528q143 0 238.5 33t152 90t79 131t22.5 158q0 123 -45 205.5t-119 133t-169 71t-198 20.5h-350v633h-139v-1475zM305 119v604h309q92 0 172 -13.5t137.5 -48t90.5 -94t33 -151.5q0 -96 -28 -154.5t-83 -90.5t-140 -42t-200 -10h-291zM1454 0h139v1475h-139v-1475z " />
<glyph unicode="&#x42c;" horiz-adv-x="1294" d="M166 0h528q143 0 238.5 33t152 90t79 131t22.5 158q0 123 -45 205.5t-119 133t-169 71t-198 20.5h-350v633h-139v-1475zM305 119v604h309q92 0 172 -13.5t137.5 -48t90.5 -94t33 -151.5q0 -96 -28 -154.5t-83 -90.5t-140 -42t-200 -10h-291z" />
<glyph unicode="&#x42d;" horiz-adv-x="1480" d="M98 485q25 -106 72 -201.5t124 -167t186.5 -113.5t256.5 -42q170 0 291 62.5t198 169t111.5 247t34.5 297.5q0 211 -52 358.5t-144.5 241t-217 135t-272.5 41.5q-115 0 -211 -29.5t-171 -89t-123 -146.5t-66 -201h143q43 188 160 268t305 80q123 0 212 -44t150.5 -119 t96.5 -176.5t51 -213.5h-631v-119h631q0 -127 -27.5 -242.5t-89 -205t-161 -142.5t-244.5 -53q-96 0 -173 30.5t-135.5 85t-98.5 128t-60 161.5h-146z" />
<glyph unicode="&#x42e;" horiz-adv-x="2054" d="M166 0h139v723h266q0 -162 45.5 -301t132.5 -241.5t215 -161t293 -58.5q170 0 299.5 61.5t215.5 167t130 245.5t44 300q0 162 -44 304.5t-131.5 248t-217.5 165.5t-302 60q-154 0 -272.5 -51t-202.5 -141t-135 -213t-70 -266h-266v633h-139v-1475zM711 735 q0 129 31.5 248t98 210t170 146.5t244.5 55.5q127 0 229.5 -45t174.5 -131t109.5 -208t37.5 -276q0 -129 -31.5 -247.5t-98 -209t-170 -144.5t-246.5 -54q-145 0 -249 53t-170.5 143.5t-98 209t-31.5 249.5z" />
<glyph unicode="&#x42f;" horiz-adv-x="1294" d="M47 0h166l412 651h364v-651h139v1475h-528q-143 0 -238.5 -33t-151.5 -90.5t-78.5 -132t-22.5 -156.5q0 -98 28.5 -168t77.5 -117t115.5 -74.5t142.5 -39.5zM248 1059q0 96 27.5 154.5t83 90t140.5 42t199 10.5h291v-586h-307q-98 0 -178 11.5t-137.5 42t-88 87 t-30.5 148.5z" />
<glyph unicode="&#x430;" horiz-adv-x="1142" d="M98 276q0 -78 29 -134t78 -95t113.5 -57.5t134.5 -18.5q117 0 217 45t172 131h4q10 -98 45 -130.5t110 -32.5q16 0 45 6t52 14v96q-23 -8 -42.5 -13t-31.5 -5q-33 0 -44 24.5t-11 75.5v578q0 92 -30 155.5t-82 101.5t-122.5 55.5t-150.5 17.5q-86 0 -163 -19.5 t-135.5 -61.5t-95 -108.5t-43.5 -161.5h125q8 70 34 116t66 73.5t93 39t117 11.5q143 0 203.5 -60.5t60.5 -154.5q0 -72 -32 -99.5t-109 -37.5l-236 -31q-371 -50 -371 -320zM229 272q0 109 79 162t220 64q115 8 196 22.5t122 36.5v-166q0 -80 -33 -138t-87 -96t-124 -56.5 t-143 -18.5q-43 0 -85 11t-74 35t-51.5 59.5t-19.5 84.5z" />
<glyph unicode="&#x431;" horiz-adv-x="1193" d="M113 584q0 -135 30.5 -248t92 -194t153.5 -126t215 -45q111 0 202 40t155.5 114t99.5 176t35 229q0 117 -30 219.5t-90.5 177t-151.5 119t-212 44.5q-135 0 -223 -55.5t-145 -149.5q16 96 44.5 164.5t71.5 115.5t101.5 74t134.5 41q88 16 161.5 34.5t128 45t85 63.5 t30.5 90h-129q0 -25 -17 -41t-57 -30.5t-103 -27.5l-154 -32q-141 -27 -225.5 -105.5t-129.5 -188t-59 -241.5t-14 -263zM244 545q0 86 20.5 164.5t63.5 138t111.5 95.5t164.5 36q98 0 167 -35t112 -95.5t62.5 -142t19.5 -176.5q0 -86 -20.5 -165.5t-63.5 -143t-112 -101.5 t-165 -38q-90 0 -156.5 38t-112.5 101.5t-68.5 147.5t-22.5 176z" />
<glyph unicode="&#x432;" horiz-adv-x="1069" d="M147 0h515q59 0 115.5 19.5t99.5 57.5t68.5 94t25.5 132q0 104 -63.5 170t-149.5 88q84 29 125 96.5t41 165.5q0 43 -18.5 85t-55.5 76t-89 55.5t-120 21.5h-494v-1061zM270 102v400h310q51 0 99 -10.5t83 -35t56.5 -63.5t21.5 -96q0 -92 -61.5 -143.5t-166.5 -51.5h-342 zM270 604v354h289q121 0 181.5 -40.5t60.5 -139.5q0 -45 -18.5 -77.5t-48 -54t-68.5 -32t-80 -10.5h-316z" />
<glyph unicode="&#x433;" horiz-adv-x="827" d="M147 0h123v958h533v103h-656v-1061z" />
<glyph unicode="&#x434;" horiz-adv-x="1132" d="M37 102v-378h123v276h784v-276h123v378h-106v959h-703v-322q0 -74 -4 -153.5t-16.5 -160.5t-38 -163t-68.5 -160h-94zM262 102q39 80 62.5 156t36 150.5t15.5 152.5t3 164v233h459v-856h-576z" />
<glyph unicode="&#x435;" horiz-adv-x="1150" d="M98 526q0 -117 29 -218t88 -176t151.5 -118t219.5 -43q100 0 176 27t131 75t92 112.5t59 140.5h-137q-29 -117 -114.5 -180.5t-206.5 -63.5q-88 0 -154.5 34t-112 91t-68 133t-22.5 162h824q0 289 -124 438.5t-343 149.5q-115 0 -205 -44.5t-152.5 -121t-96.5 -179 t-34 -219.5zM229 604q8 76 35 143.5t71 119t106.5 82t144.5 30.5t145.5 -29.5t105.5 -80t63.5 -119t21.5 -146.5h-693z" />
<glyph unicode="&#x436;" horiz-adv-x="1503" d="M12 0h140l374 557l164 -168v-389h123v389l164 168l375 -557h139l-424 643l381 418h-160l-475 -524v524h-123v-524l-475 524h-160l381 -418z" />
<glyph unicode="&#x437;" horiz-adv-x="1034" d="M76 332q16 -170 126.5 -265.5t309.5 -95.5t311.5 78t112.5 232q0 115 -70.5 190.5t-169.5 97.5q80 14 140.5 79t60.5 165q0 53 -23.5 103.5t-72.5 88t-124 61.5t-177 24q-78 0 -145.5 -24t-120 -68t-85 -105.5t-38.5 -134.5h118q29 117 91.5 169t183.5 52 q123 0 196.5 -41t73.5 -137q0 -39 -17.5 -73t-47 -58.5t-65.5 -39t-73 -14.5h-133v-102h109q51 0 98 -14.5t83 -43t56.5 -72.5t20.5 -105q0 -88 -76 -142.5t-211 -54.5q-143 0 -226 65.5t-95 184.5h-121z" />
<glyph unicode="&#x438;" horiz-adv-x="1159" d="M147 0h138l604 897v-897h123v1061h-135l-607 -897v897h-123v-1061z" />
<glyph unicode="&#x439;" horiz-adv-x="1159" d="M147 0h138l604 897v-897h123v1061h-135l-607 -897v897h-123v-1061zM285 1427q10 -123 85.5 -190.5t198.5 -67.5q127 0 209 64.5t96 193.5h-75q-23 -86 -78 -125.5t-141 -39.5t-142.5 39.5t-72.5 125.5h-80z" />
<glyph unicode="&#x43a;" horiz-adv-x="1032" d="M147 0h123v401l201 191l397 -592h138l-445 678l397 383h-167l-521 -504v504h-123v-1061z" />
<glyph unicode="&#x43b;" horiz-adv-x="1132" d="M14 6q20 -8 45 -11t45 -3q98 0 152.5 77.5t73.5 237.5q4 39 8 93.5t7 116t4 125t1 118.5v198h490v-958h123v1061h-736q0 -236 -2 -395.5t-8 -262t-16.5 -156.5t-24.5 -79q-39 -70 -88 -70q-10 0 -32.5 2t-41.5 6v-100z" />
<glyph unicode="&#x43c;" horiz-adv-x="1329" d="M147 0h123v868l338 -868h113l338 868v-868h123v1061h-160l-356 -922l-359 922h-160v-1061z" />
<glyph unicode="&#x43d;" horiz-adv-x="1142" d="M154 0h122v514h590v-514h123v1061h-123v-445h-590v445h-122v-1061z" />
<glyph unicode="&#x43e;" horiz-adv-x="1179" d="M98 530q0 -139 39 -243.5t105.5 -175t155.5 -105.5t192 -35q111 0 202 40t155.5 114t99 176t34.5 229q0 117 -29.5 219.5t-91 177t-153.5 119t-217 44.5q-123 0 -215 -44.5t-153.5 -120t-92.5 -177t-31 -218.5zM229 530q0 86 20.5 167t63.5 143.5t112 100.5t165 38 q98 0 166.5 -35t111.5 -95.5t62.5 -142t19.5 -176.5q0 -86 -20.5 -165.5t-63.5 -143t-111.5 -101.5t-164.5 -38q-88 0 -155.5 32.5t-113 92t-69 142.5t-23.5 181z" />
<glyph unicode="&#x43f;" horiz-adv-x="1130" d="M147 0h123v958h590v-958h123v1061h-836v-1061z" />
<glyph unicode="&#x440;" horiz-adv-x="1220" d="M147 -418h123v588q59 -98 163 -148.5t216 -50.5q121 0 210 46t147.5 123t87 179.5t28.5 212.5q0 117 -26.5 219.5t-85 177.5t-148.5 118t-219 43q-51 0 -104.5 -14.5t-103.5 -41t-92 -67.5t-69 -93h-4v187h-123v-1479zM270 516q0 225 99.5 344t259.5 119q94 0 162.5 -37 t113.5 -100.5t65.5 -148.5t20.5 -181q0 -90 -27.5 -169t-75.5 -137.5t-114.5 -91t-144.5 -32.5q-86 0 -153.5 36t-113 95t-69 138t-23.5 165z" />
<glyph unicode="&#x441;" horiz-adv-x="1140" d="M98 528q0 -117 29 -219t88 -177t151.5 -118t219.5 -43q100 0 178 29t134 81t92 125t52 161h-131q-23 -133 -105.5 -209t-219.5 -76q-96 0 -164 38t-111 101.5t-62.5 143t-19.5 163.5q0 82 20.5 163t63.5 145.5t111 103.5t162 39q123 0 202.5 -66.5t112.5 -185.5h125 q-29 186 -142.5 274.5t-297.5 88.5q-119 0 -210 -46.5t-152.5 -124t-93.5 -179t-32 -212.5z" />
<glyph unicode="&#x442;" horiz-adv-x="892" d="M29 958h356v-958h123v958h356v103h-835v-103z" />
<glyph unicode="&#x443;" horiz-adv-x="1003" d="M37 1061l412 -1069q-31 -88 -55.5 -145.5t-48 -90t-48.5 -45t-55 -12.5q-27 0 -53 4l-50 8v-114q25 -6 54.5 -10.5t62.5 -4.5q63 0 109.5 30t84 86t71.5 136t71 180l395 1047h-133l-340 -911l-340 911h-137z" />
<glyph unicode="&#x444;" horiz-adv-x="1781" d="M98 535q0 -115 23.5 -217.5t74 -179.5t128 -122t186.5 -45q104 0 185 45t134 142v-576h123v572q53 -96 134 -139.5t186 -43.5q109 0 186.5 44t127.5 121t73.5 178.5t23.5 215.5q0 111 -25.5 212.5t-75.5 178t-128 123t-182 46.5q-111 0 -194 -56.5t-126 -132.5v612h-123 v-608q-43 76 -125.5 130.5t-193.5 54.5q-104 0 -182 -45.5t-128 -122t-76 -176.5t-26 -211zM229 535q0 80 17.5 159.5t54.5 142t93.5 102.5t133.5 40q72 0 128.5 -36t94 -97.5t58 -142t20.5 -168.5q0 -86 -17 -168t-54 -144.5t-93.5 -101.5t-136.5 -39t-136 38t-93 100.5 t-53.5 144.5t-16.5 170zM952 535q0 88 19.5 168.5t58.5 142t95.5 97.5t127.5 36q78 0 134.5 -40t93.5 -102.5t54 -142.5t17 -159q0 -88 -16 -170t-53 -144.5t-93.5 -100.5t-136.5 -38t-136 39t-93 101.5t-54.5 144.5t-17.5 168z" />
<glyph unicode="&#x445;" horiz-adv-x="1024" d="M37 0h149l330 459l322 -459h147l-397 549l383 512h-156l-301 -422l-293 422h-151l374 -512z" />
<glyph unicode="&#x446;" horiz-adv-x="1146" d="M147 0h820v-279h123v381h-107v959h-123v-959h-590v959h-123v-1061z" />
<glyph unicode="&#x447;" horiz-adv-x="1044" d="M113 784q0 -80 26.5 -139t72.5 -100t106.5 -61.5t127.5 -20.5q92 0 173 8t155 31v-502h123v1061h-123v-455q-18 -8 -38.5 -14t-53.5 -10t-83 -6.5t-130 -2.5q-106 0 -169.5 51.5t-63.5 145.5v291h-123v-277z" />
<glyph unicode="&#x448;" horiz-adv-x="1736" d="M147 0h1442v1061h-123v-959h-536v959h-123v-959h-537v959h-123v-1061z" />
<glyph unicode="&#x449;" horiz-adv-x="1753" d="M147 0h1426v-279h123v381h-107v959h-123v-959h-536v959h-123v-959h-537v959h-123v-1061z" />
<glyph unicode="&#x44a;" horiz-adv-x="1103" d="M-23 958h226v-958h450q31 0 90.5 8t118 39t101.5 91.5t43 166.5q0 68 -26 125t-74 99t-115.5 64.5t-153.5 22.5h-311v445h-349v-103zM326 102v412h303q104 0 174.5 -55.5t70.5 -153.5q0 -96 -66.5 -149.5t-205.5 -53.5h-276z" />
<glyph unicode="&#x44b;" horiz-adv-x="1435" d="M147 0h451q31 0 90.5 8t117.5 39t101 91.5t43 166.5q0 68 -25.5 125t-73.5 99t-115.5 64.5t-153.5 22.5h-312v445h-123v-1061zM270 102v412h303q104 0 175 -55.5t71 -153.5q0 -96 -66.5 -149.5t-205.5 -53.5h-277zM1165 0h123v1061h-123v-1061z" />
<glyph unicode="&#x44c;" horiz-adv-x="1048" d="M147 0h451q31 0 90.5 8t117.5 39t101 91.5t43 166.5q0 68 -25.5 125t-73.5 99t-115.5 64.5t-153.5 22.5h-312v445h-123v-1061zM270 102v412h303q104 0 175 -55.5t71 -153.5q0 -96 -66.5 -149.5t-205.5 -53.5h-277z" />
<glyph unicode="&#x44d;" horiz-adv-x="1136" d="M94 367q16 -88 52 -161t92.5 -125t134.5 -81t178 -29q127 0 219 43t151.5 118t88 177.5t28.5 218.5q0 111 -31.5 212.5t-93 179t-152.5 124t-210 46.5q-184 0 -298 -99.5t-142 -263.5h125q33 119 112.5 185.5t202.5 66.5q84 0 146.5 -32t105.5 -82t67.5 -115.5 t30.5 -133.5h-416v-102h422q0 -80 -21.5 -157.5t-65.5 -139t-110.5 -98.5t-158.5 -37q-137 0 -220 75.5t-106 209.5h-131z" />
<glyph unicode="&#x44e;" horiz-adv-x="1568" d="M147 0h123v514h217q0 -137 40 -239.5t107.5 -170t157 -100.5t187.5 -33q111 0 202 40t155.5 114t99 176t34.5 229q0 117 -29.5 219.5t-91 177t-153.5 119t-217 44.5q-113 0 -199 -37t-146.5 -100.5t-95 -149.5t-44.5 -187h-224v445h-123v-1061zM618 530q0 86 20.5 167 t63.5 143.5t112 100.5t165 38q98 0 166.5 -35t111.5 -95.5t62.5 -142t19.5 -176.5q0 -86 -20.5 -165.5t-63.5 -143t-111.5 -101.5t-164.5 -38q-88 0 -155.5 32.5t-112.5 92t-69 142.5t-24 181z" />
<glyph unicode="&#x44f;" horiz-adv-x="1048" d="M92 0h137l256 453h293v-453h123v1061h-450q-31 0 -90.5 -8.5t-118 -39t-101.5 -91t-43 -166.5q0 -111 64.5 -185.5t197.5 -107.5zM229 756q0 96 66.5 149t206.5 53h276v-403h-303q-104 0 -175 51.5t-71 149.5z" />
<glyph unicode="&#x450;" horiz-adv-x="1150" d="M252 1497l283 -284h104l-227 284h-160zM98 526q0 -117 29 -218t88 -176t151.5 -118t219.5 -43q100 0 176 27t131 75t92 112.5t59 140.5h-137q-29 -117 -114.5 -180.5t-206.5 -63.5q-88 0 -154.5 34t-112 91t-68 133t-22.5 162h824q0 289 -124 438.5t-343 149.5 q-115 0 -205 -44.5t-152.5 -121t-96.5 -179t-34 -219.5zM229 604q8 76 35 143.5t71 119t106.5 82t144.5 30.5t145.5 -29.5t105.5 -80t63.5 -119t21.5 -146.5h-693z" />
<glyph unicode="&#x451;" horiz-adv-x="1150" d="M98 526q0 -117 29 -218t88 -176t151.5 -118t219.5 -43q100 0 176 27t131 75t92 112.5t59 140.5h-137q-29 -117 -114.5 -180.5t-206.5 -63.5q-88 0 -154.5 34t-112 91t-68 133t-22.5 162h824q0 289 -124 438.5t-343 149.5q-115 0 -205 -44.5t-152.5 -121t-96.5 -179 t-34 -219.5zM229 604q8 76 35 143.5t71 119t106.5 82t144.5 30.5t145.5 -29.5t105.5 -80t63.5 -119t21.5 -146.5h-693zM369 1223h123v182h-123v-182zM684 1223h123v182h-123v-182z" />
<glyph unicode="&#x452;" horiz-adv-x="1136" d="M10 1208h137v-1208h123v604q0 61 16.5 128t55.5 121t99.5 90t150.5 36q82 0 135 -20.5t84 -60.5t43 -99.5t12 -136.5q0 -223 -19.5 -367.5t-64.5 -231t-118.5 -125t-184.5 -51.5v-110q127 14 223.5 55t162 135t99 252t33.5 404q0 133 -24.5 223t-72.5 144t-120.5 77 t-167.5 23q-111 0 -192.5 -52.5t-149.5 -124.5v295h346v111h-346v156h-123v-156h-137v-111z" />
<glyph unicode="&#x453;" horiz-adv-x="827" d="M147 0h123v958h533v103h-656v-1061zM373 1178h94l254 256h-143z" />
<glyph unicode="&#x454;" horiz-adv-x="1140" d="M98 528q0 -117 29 -219t88 -177t151.5 -118t219.5 -43q100 0 178 29t134 81t92 125t52 161h-131q-23 -133 -105.5 -209t-219.5 -76q-92 0 -159 37t-111 97t-65.5 138t-21.5 160h422v102h-415q6 68 30.5 132.5t67.5 115.5t105.5 83t146.5 32q123 0 202.5 -66.5 t112.5 -185.5h125q-29 186 -142.5 274.5t-297.5 88.5q-119 0 -210 -46.5t-152.5 -124t-93.5 -179t-32 -212.5z" />
<glyph unicode="&#x455;" horiz-adv-x="1007" d="M74 332q4 -76 32.5 -141.5t80 -114.5t124 -77t166.5 -28t173 19.5t136.5 58.5t90 97.5t32.5 134.5q0 102 -50 159.5t-126 91t-164 52t-163.5 42t-126 61.5t-50.5 110q0 82 61.5 132t178.5 50t193.5 -50t93.5 -173h125q-23 180 -130.5 257t-279.5 77q-178 0 -275.5 -85 t-97.5 -219q0 -104 50.5 -161.5t126 -88t163.5 -46t164 -37t126 -59.5t50 -115q0 -39 -16.5 -74t-48 -62.5t-80.5 -44t-117 -16.5q-139 0 -214 56.5t-103 193.5h-125z" />
<glyph unicode="&#x456;" horiz-adv-x="417" d="M147 0h123v1061h-123v-1061zM147 1292h123v183h-123v-183z" />
<glyph unicode="&#x457;" horiz-adv-x="417" d="M0 1249h123v183h-123v-183zM147 0h123v1061h-123v-1061zM295 1249h123v183h-123v-183z" />
<glyph unicode="&#x458;" horiz-adv-x="450" d="M10 -301v-109q35 -8 80 -8q74 0 116 17.5t63.5 53.5t27.5 87t6 119v1202h-123v-1219q0 -72 -23.5 -109.5t-95.5 -37.5q-4 0 -22.5 1t-28.5 3zM180 1292h123v183h-123v-183z" />
<glyph unicode="&#x459;" horiz-adv-x="1687" d="M14 6q20 -8 45 -11t45 -3q98 0 152.5 77.5t73.5 237.5q4 39 8 93.5t7 116t4 125t1 118.5v198h436v-958h451q31 0 90 8t117.5 39t101.5 91.5t43 166.5q0 68 -25.5 125t-73.5 99t-115.5 64.5t-153.5 22.5h-312v445h-682q0 -236 -2 -395.5t-8 -262t-16.5 -156.5t-24.5 -79 q-39 -70 -88 -70q-10 0 -32.5 2t-41.5 6v-100zM909 102v412h303q104 0 175 -55.5t71 -153.5q0 -96 -66.5 -149.5t-205.5 -53.5h-277z" />
<glyph unicode="&#x45a;" horiz-adv-x="1710" d="M154 0h122v514h533v-514h451q31 0 90 8t117.5 39t101.5 91.5t43 166.5q0 68 -25.5 125t-74 99t-116 64.5t-153.5 22.5h-311v445h-123v-445h-533v445h-122v-1061zM932 102v412h303q104 0 175 -55.5t71 -153.5q0 -96 -66.5 -149.5t-206.5 -53.5h-276z" />
<glyph unicode="&#x45b;" horiz-adv-x="1136" d="M10 1208h137v-1208h123v582q0 76 18.5 147.5t56.5 126.5t99.5 89t147.5 34q147 0 210.5 -71.5t63.5 -215.5v-692h123v694q0 203 -101.5 299.5t-275.5 96.5q-111 0 -189.5 -49.5t-152.5 -127.5v295h346v111h-346v156h-123v-156h-137v-111z" />
<glyph unicode="&#x45c;" horiz-adv-x="1032" d="M147 0h123v401l201 191l397 -592h138l-445 678l397 383h-167l-521 -504v504h-123v-1061zM465 1178h94l254 256h-143z" />
<glyph unicode="&#x45d;" horiz-adv-x="1159" d="M244 1497l283 -284h104l-227 284h-160zM147 0h138l604 897v-897h123v1061h-135l-607 -897v897h-123v-1061z" />
<glyph unicode="&#x45e;" horiz-adv-x="1003" d="M37 1061l412 -1069q-31 -88 -55.5 -145.5t-48 -90t-48.5 -45t-55 -12.5q-27 0 -53 4l-50 8v-114q25 -6 54.5 -10.5t62.5 -4.5q63 0 109.5 30t84 86t71.5 136t71 180l395 1047h-133l-340 -911l-340 911h-137zM250 1427q10 -123 86 -190.5t199 -67.5q127 0 208.5 64.5 t96.5 193.5h-76q-23 -86 -78 -125.5t-141 -39.5t-142.5 39.5t-72.5 125.5h-80z" />
<glyph unicode="&#x45f;" horiz-adv-x="1130" d="M147 0h357v-279h123v279h356v1061h-123v-959h-590v959h-123v-1061z" />
<glyph unicode="&#x490;" horiz-adv-x="1153" d="M166 0h139v1356h811v385h-139v-266h-811v-1475z" />
<glyph unicode="&#x491;" horiz-adv-x="827" d="M147 0h123v958h533v302h-123v-199h-533v-1061z" />
<glyph unicode="&#x4ae;" horiz-adv-x="1251" d="M25 1475l526 -842v-633h139v643l535 832h-162l-445 -711l-434 711h-159z" />
<glyph unicode="&#x4c0;" horiz-adv-x="471" d="M166 0h139v1475h-139v-1475z" />
<glyph unicode="&#x2000;" horiz-adv-x="976" />
<glyph unicode="&#x2001;" horiz-adv-x="1953" />
<glyph unicode="&#x2002;" horiz-adv-x="976" />
<glyph unicode="&#x2003;" horiz-adv-x="1953" />
<glyph unicode="&#x2004;" horiz-adv-x="651" />
<glyph unicode="&#x2005;" horiz-adv-x="487" />
<glyph unicode="&#x2006;" horiz-adv-x="325" />
<glyph unicode="&#x2007;" horiz-adv-x="325" />
<glyph unicode="&#x2008;" horiz-adv-x="243" />
<glyph unicode="&#x2009;" horiz-adv-x="389" />
<glyph unicode="&#x200a;" horiz-adv-x="108" />
<glyph unicode="&#x2010;" horiz-adv-x="681" d="M82 451h518v122h-518v-122z" />
<glyph unicode="&#x2011;" horiz-adv-x="681" d="M82 451h518v122h-518v-122z" />
<glyph unicode="&#x2012;" horiz-adv-x="681" d="M82 451h518v122h-518v-122z" />
<glyph unicode="&#x2013;" horiz-adv-x="1024" d="M0 451h1024v122h-1024v-122z" />
<glyph unicode="&#x2014;" horiz-adv-x="2048" d="M0 451h2048v122h-2048v-122z" />
<glyph unicode="&#x2018;" horiz-adv-x="454" d="M141 1014h150v180h-70v70q0 61 22.5 89.5t47.5 45.5v76q-66 -20 -108 -74.5t-42 -145.5v-241z" />
<glyph unicode="&#x2019;" horiz-adv-x="454" d="M164 1014q66 20 107.5 74.5t41.5 144.5v242h-149v-181h69v-69q0 -61 -22.5 -90t-46.5 -45v-76z" />
<glyph unicode="&#x201a;" horiz-adv-x="569" d="M209 0h70v-70q0 -61 -23 -89.5t-47 -45.5v-76q66 20 107.5 74.5t41.5 145.5v241h-149v-180z" />
<glyph unicode="&#x201c;" horiz-adv-x="796" d="M176 1014h150v180h-70v70q0 61 22.5 89.5t47.5 45.5v76q-66 -20 -108 -74.5t-42 -145.5v-241zM485 1014h150v180h-70v70q0 61 22.5 89.5t47.5 45.5v76q-66 -20 -108 -74.5t-42 -145.5v-241z" />
<glyph unicode="&#x201d;" horiz-adv-x="796" d="M162 1014q66 20 107.5 74.5t41.5 144.5v242h-149v-181h69v-69q0 -61 -22.5 -90t-46.5 -45v-76zM471 1014q66 20 108 74.5t42 144.5v242h-150v-181h70v-69q0 -61 -22.5 -90t-47.5 -45v-76z" />
<glyph unicode="&#x201e;" horiz-adv-x="796" d="M162 0h69v-70q0 -61 -22.5 -89.5t-46.5 -45.5v-76q66 20 107.5 74.5t41.5 145.5v241h-149v-180zM471 0h70v-70q0 -61 -22.5 -89.5t-47.5 -45.5v-76q66 20 108 74.5t42 145.5v241h-150v-180z" />
<glyph unicode="&#x2026;" horiz-adv-x="2048" d="M268 0h150v180h-150v-180zM950 0h150v180h-150v-180zM1632 0h150v180h-150v-180z" />
<glyph unicode="&#x202f;" horiz-adv-x="389" />
<glyph unicode="&#x2039;" horiz-adv-x="796" d="M248 467l299 -227v127l-213 163l213 168v129l-299 -231v-129z" />
<glyph unicode="&#x203a;" horiz-adv-x="796" d="M250 240l299 231v129l-299 227v-127l213 -163l-213 -168v-129z" />
<glyph unicode="&#x205f;" horiz-adv-x="487" />
<glyph unicode="&#x2122;" horiz-adv-x="1925" d="M59 1393h275v-781h106v781h275v82h-656v-82zM874 612h107v772h4l297 -772h70l297 772h4v-772h106v863h-196l-242 -637h-4l-246 637h-197v-863z" />
<glyph unicode="&#xe000;" horiz-adv-x="1060" d="M0 1060h1060v-1060h-1060v1060z" />
</font>
</defs>
</svg>
